<?xml version="1.0" encoding="UTF-8" standalone="no"?>
<!-- Created with Inkscape (http://www.inkscape.org/) -->

<svg
   version="1.1"
   id="svg4688"
   width="225.02129"
   height="225.02129"
   viewBox="0 0 225.02129 225.02129"
   xmlns="http://www.w3.org/2000/svg"
   xmlns:svg="http://www.w3.org/2000/svg">
  <defs
     id="defs4692" />
  <g
     id="g4694">
    <g
       id="g4755"
       transform="translate(0.72788149,-0.49245914)"
       style="fill:#6f4700;fill-opacity:1">
      <path
         style="fill:#6f4700;fill-opacity:1;stroke-width:0.113475"
         d="m 109.70513,224.93806 c 0.2669,-0.024 0.67541,-0.0236 0.9078,0.001 0.2324,0.0244 0.014,0.044 -0.48526,0.0436 -0.49929,0 -0.68943,-0.0204 -0.42254,-0.0443 z m 4.76596,0 c 0.2669,-0.024 0.67541,-0.0236 0.9078,0.001 0.2324,0.0244 0.014,0.044 -0.48527,0.0436 -0.49929,0 -0.68943,-0.0204 -0.42253,-0.0443 z m -7.77605,-0.10846 c 0.10922,-0.0285 0.28795,-0.0285 0.39716,0 0.10922,0.0285 0.0199,0.0519 -0.19858,0.0519 -0.21844,0 -0.3078,-0.0234 -0.19858,-0.0519 z m 11.23405,0 c 0.10921,-0.0285 0.28794,-0.0285 0.39716,0 0.10922,0.0285 0.0199,0.0519 -0.19858,0.0519 -0.21844,0 -0.3078,-0.0234 -0.19858,-0.0519 z m -13.10639,-0.11041 c 0.078,-0.0315 0.20568,-0.0315 0.28369,0 0.078,0.0315 0.0142,0.0572 -0.14184,0.0572 -0.15603,0 -0.21986,-0.0258 -0.14185,-0.0572 z m 15.0922,0 c 0.078,-0.0315 0.20567,-0.0315 0.28369,0 0.078,0.0315 0.0142,0.0572 -0.14185,0.0572 -0.15602,0 -0.21985,-0.0258 -0.14184,-0.0572 z m -16.56028,-0.11584 c 0.0819,-0.0328 0.17978,-0.0288 0.21749,0.009 0.0377,0.0377 -0.0293,0.0645 -0.14894,0.0596 -0.13219,-0.005 -0.15908,-0.0323 -0.0686,-0.0686 z m 18.15603,0 c 0.0819,-0.0328 0.17979,-0.0288 0.21749,0.009 0.0377,0.0377 -0.0293,0.0645 -0.14893,0.0596 -0.1322,-0.005 -0.15908,-0.0323 -0.0686,-0.0686 z m -19.51774,-0.11348 c 0.0819,-0.0328 0.17979,-0.0288 0.2175,0.009 0.0377,0.0377 -0.0293,0.0645 -0.14894,0.0596 -0.13219,-0.005 -0.15908,-0.0323 -0.0686,-0.0686 z m 20.87944,0 c 0.0819,-0.0328 0.17979,-0.0288 0.2175,0.009 0.0377,0.0377 -0.0293,0.0645 -0.14894,0.0596 -0.1322,-0.005 -0.15908,-0.0323 -0.0686,-0.0686 z m -22.01419,-0.11347 c 0.0819,-0.0328 0.17979,-0.0288 0.2175,0.009 0.0377,0.0377 -0.0293,0.0645 -0.14894,0.0596 -0.13219,-0.005 -0.15908,-0.0323 -0.0686,-0.0686 z m 23.14894,0 c 0.0819,-0.0328 0.17979,-0.0288 0.2175,0.009 0.0377,0.0377 -0.0293,0.0645 -0.14894,0.0596 -0.1322,-0.005 -0.15908,-0.0323 -0.0686,-0.0686 z m 2.95035,-0.34043 c 0.0819,-0.0328 0.17979,-0.0288 0.2175,0.009 0.0377,0.0377 -0.0293,0.0645 -0.14893,0.0596 -0.1322,-0.005 -0.15908,-0.0323 -0.0686,-0.0686 z m 56.6454,-24.36249 c 0,-0.0236 0.0894,-0.11292 0.19858,-0.19859 0.17998,-0.14114 0.18399,-0.13713 0.0428,0.0429 -0.14825,0.18902 -0.24143,0.24914 -0.24143,0.15574 z m 0.68085,-0.56738 c 0,-0.0236 0.0894,-0.11292 0.19858,-0.19858 0.17998,-0.14114 0.18399,-0.13714 0.0428,0.0428 -0.14825,0.18901 -0.24143,0.24913 -0.24143,0.15573 z M 39.815315,198.38299 c -0.141149,-0.17998 -0.137135,-0.18399 0.04284,-0.0429 0.189022,0.14825 0.249133,0.24143 0.155738,0.24143 -0.02356,0 -0.112925,-0.0894 -0.198581,-0.19858 z m 145.149235,0.15573 c 0,-0.0236 0.0894,-0.11292 0.19858,-0.19858 0.17998,-0.14114 0.18399,-0.13713 0.0429,0.0429 -0.14824,0.18902 -0.24143,0.24914 -0.24143,0.15573 z M 39.020988,197.70214 c -0.141148,-0.17998 -0.137134,-0.18399 0.04284,-0.0429 0.189021,0.14825 0.249133,0.24143 0.155738,0.24143 -0.02356,0 -0.112925,-0.0894 -0.198582,-0.19858 z m 146.737892,0.15573 c 0,-0.0236 0.0894,-0.11292 0.19858,-0.19858 0.17998,-0.14114 0.18399,-0.13713 0.0429,0.0429 -0.14825,0.18902 -0.24143,0.24913 -0.24143,0.15573 z m 0.9078,-0.79432 c 0,-0.0236 0.0894,-0.11292 0.19858,-0.19859 0.17998,-0.14114 0.18399,-0.13713 0.0428,0.0429 -0.14825,0.18902 -0.24143,0.24914 -0.24143,0.15574 z m -75.65958,-0.26539 c 0.17163,-0.026 0.45248,-0.026 0.62411,0 0.17163,0.026 0.0312,0.0473 -0.31205,0.0473 -0.34327,0 -0.48369,-0.0213 -0.31206,-0.0473 z m 5.73253,-0.001 c 0.20396,-0.0253 0.51034,-0.0247 0.68085,0.001 0.17052,0.0259 0.004,0.0465 -0.37083,0.0459 -0.37447,-0.001 -0.51397,-0.0218 -0.31002,-0.0471 z m -8.45594,-0.10946 c 0.10922,-0.0285 0.28795,-0.0285 0.39717,0 0.10922,0.0285 0.0199,0.0519 -0.19858,0.0519 -0.21844,0 -0.30781,-0.0234 -0.19859,-0.0519 z m 11.2362,0 c 0.11041,-0.0288 0.26361,-0.0269 0.34043,0.004 0.0768,0.0311 -0.0135,0.0546 -0.20074,0.0523 -0.18723,-0.002 -0.25009,-0.0277 -0.13969,-0.0565 z m -12.99506,-0.10999 c 0.078,-0.0315 0.20567,-0.0315 0.28369,0 0.078,0.0315 0.0142,0.0572 -0.14185,0.0572 -0.15603,0 -0.21986,-0.0257 -0.14184,-0.0572 z m 14.6383,0 c 0.078,-0.0315 0.20567,-0.0315 0.28369,0 0.078,0.0315 0.0142,0.0572 -0.14185,0.0572 -0.15603,0 -0.21986,-0.0257 -0.14184,-0.0572 z m -15.99291,-0.11584 c 0.0819,-0.0328 0.17979,-0.0288 0.21749,0.009 0.0377,0.0377 -0.0293,0.0645 -0.14893,0.0596 -0.1322,-0.005 -0.15908,-0.0323 -0.0686,-0.0686 z m 17.35461,0.002 c 0.078,-0.0315 0.20567,-0.0315 0.28369,0 0.078,0.0315 0.0142,0.0572 -0.14185,0.0572 -0.15602,0 -0.21985,-0.0258 -0.14184,-0.0572 z m -18.60993,-0.11348 c 0.078,-0.0315 0.20567,-0.0315 0.28369,0 0.078,0.0315 0.0142,0.0572 -0.14185,0.0572 -0.15602,0 -0.21985,-0.0258 -0.14184,-0.0572 z m 19.86525,-0.002 c 0.0819,-0.0328 0.17979,-0.0288 0.2175,0.009 0.0377,0.0377 -0.0293,0.0645 -0.14894,0.0596 -0.1322,-0.005 -0.15908,-0.0323 -0.0686,-0.0686 z m -86.627808,-0.29152 -0.21617,-0.25532 0.25532,0.21617 c 0.239936,0.20314 0.306977,0.29447 0.216169,0.29447 -0.02153,0 -0.136427,-0.1149 -0.255319,-0.25532 z m 150.592348,0.0284 c 0.11297,-0.12482 0.23092,-0.22695 0.26213,-0.22695 0.0312,0 -0.0357,0.10213 -0.14865,0.22695 -0.11297,0.12482 -0.23092,0.22695 -0.26213,0.22695 -0.0312,0 0.0357,-0.10213 0.14865,-0.22695 z m -85.86525,0.036 c 0.0819,-0.0328 0.17979,-0.0288 0.21749,0.009 0.0377,0.0377 -0.0293,0.0645 -0.14893,0.0596 -0.1322,-0.005 -0.15908,-0.0323 -0.0686,-0.0686 z m 23.82979,0 c 0.0819,-0.0328 0.17979,-0.0288 0.2175,0.009 0.0377,0.0377 -0.0293,0.0645 -0.14894,0.0596 -0.1322,-0.005 -0.15908,-0.0323 -0.0686,-0.0686 z m 1.70213,-0.22695 c 0.0819,-0.0328 0.17979,-0.0288 0.21749,0.009 0.0377,0.0377 -0.0293,0.0645 -0.14893,0.0596 -0.1322,-0.005 -0.15908,-0.0323 -0.0686,-0.0686 z m -91.672785,-1.14235 -0.391055,-0.42553 0.425532,0.39106 c 0.234042,0.21508 0.425532,0.40657 0.425532,0.42553 0,0.0866 -0.09602,0.005 -0.460009,-0.39106 z M 188.82271,195.142 c 0,-0.0195 0.16595,-0.18549 0.36879,-0.36879 l 0.36879,-0.33329 -0.33328,0.36879 c -0.31068,0.34378 -0.4043,0.42096 -0.4043,0.33329 z m 3.1773,-3.08506 c 0.52774,-0.5305 0.98506,-0.96454 1.01626,-0.96454 0.0312,0 -0.37504,0.43404 -0.90278,0.96454 -0.52774,0.5305 -0.98506,0.96454 -1.01626,0.96454 -0.0312,0 0.37504,-0.43404 0.90278,-0.96454 z m -159.151988,-0.0851 -0.791283,-0.82269 0.822696,0.79128 c 0.452482,0.4352 0.822695,0.80542 0.822695,0.8227 0,0.0832 -0.119164,-0.0272 -0.854108,-0.79129 z m -2.672212,-2.78014 -0.275099,-0.31206 0.312057,0.2751 c 0.291664,0.25713 0.364095,0.34902 0.275099,0.34902 -0.02033,0 -0.160751,-0.14043 -0.312057,-0.31206 z m 164.32066,0.27655 c 0,-0.0195 0.16595,-0.18549 0.36879,-0.36879 l 0.36879,-0.33329 -0.33328,0.36879 c -0.31068,0.34378 -0.4043,0.42096 -0.4043,0.33329 z M 28.921697,187.8298 c -0.141148,-0.17998 -0.137135,-0.18399 0.04284,-0.0429 0.10922,0.0857 0.198581,0.17502 0.198581,0.19858 0,0.0934 -0.09318,0.0333 -0.241425,-0.15573 z m 167.106683,-0.0284 c 0.11297,-0.12482 0.23092,-0.22695 0.26213,-0.22695 0.0312,0 -0.0357,0.10213 -0.14865,0.22695 -0.11297,0.12482 -0.23093,0.22695 -0.26213,0.22695 -0.0312,0 0.0357,-0.10213 0.14865,-0.22695 z m 0.73759,-0.83717 c 0,-0.0236 0.0894,-0.11292 0.19858,-0.19859 0.17998,-0.14114 0.18399,-0.13713 0.0428,0.0428 -0.14825,0.18902 -0.24143,0.24914 -0.24143,0.15574 z M 27.219569,185.90072 c -0.141148,-0.17998 -0.137134,-0.18399 0.04284,-0.0429 0.10922,0.0857 0.198582,0.17503 0.198582,0.19858 0,0.0934 -0.09319,0.0333 -0.241426,-0.15573 z m 170.340731,0.15573 c 0,-0.0236 0.0894,-0.11292 0.19858,-0.19858 0.17998,-0.14114 0.18399,-0.13713 0.0428,0.0429 -0.14825,0.18902 -0.24143,0.24914 -0.24143,0.15573 z M 26.538718,185.10639 c -0.141148,-0.17998 -0.137135,-0.18398 0.04284,-0.0428 0.189021,0.14824 0.249132,0.24143 0.155738,0.24143 -0.02356,0 -0.112925,-0.0894 -0.198582,-0.19859 z m 171.702432,0.15574 c 0,-0.0236 0.0894,-0.11292 0.19858,-0.19858 0.17998,-0.14114 0.18399,-0.13714 0.0429,0.0428 -0.14825,0.18902 -0.24143,0.24914 -0.24143,0.15574 z m -80.81826,-0.38171 c 0.39252,-0.0222 1.00528,-0.022 1.36171,0 0.35641,0.0224 0.0353,0.0406 -0.71367,0.0404 -0.74894,0 -1.04056,-0.0186 -0.64804,-0.0408 z m -3.69023,-0.10798 c 0.11041,-0.0288 0.2636,-0.0269 0.34042,0.004 0.0768,0.0311 -0.0135,0.0546 -0.20073,0.0523 -0.18724,-0.002 -0.25009,-0.0277 -0.13969,-0.0565 z m 8.16806,0 c 0.10922,-0.0285 0.28794,-0.0285 0.39716,0 0.10922,0.0285 0.0199,0.0519 -0.19858,0.0519 -0.21844,0 -0.3078,-0.0233 -0.19858,-0.0519 z m -9.92199,-0.11278 c 0.0819,-0.0328 0.17979,-0.0288 0.21749,0.009 0.0377,0.0377 -0.0293,0.0645 -0.14893,0.0596 -0.13219,-0.005 -0.15908,-0.0323 -0.0686,-0.0686 z m 11.79433,0.002 c 0.078,-0.0315 0.20567,-0.0315 0.28368,0 0.078,0.0315 0.0142,0.0572 -0.14184,0.0572 -0.15603,0 -0.21986,-0.0257 -0.14184,-0.0572 z m -97.801718,-0.23651 c -0.141148,-0.17998 -0.137135,-0.18399 0.04284,-0.0429 0.189021,0.14825 0.249132,0.24143 0.155738,0.24143 -0.02356,0 -0.112925,-0.0894 -0.198582,-0.19858 z m 84.645688,0.12107 c 0.0819,-0.0328 0.17979,-0.0288 0.21749,0.009 0.0377,0.0377 -0.0293,0.0645 -0.14893,0.0596 -0.1322,-0.005 -0.15908,-0.0323 -0.0686,-0.0686 z m 14.6383,0 c 0.0819,-0.0328 0.17979,-0.0288 0.21749,0.009 0.0377,0.0377 -0.0293,0.0645 -0.14893,0.0596 -0.1322,-0.005 -0.15908,-0.0323 -0.0686,-0.0686 z m 1.13475,-0.11348 c 0.0819,-0.0328 0.17979,-0.0288 0.2175,0.009 0.0377,0.0377 -0.0293,0.0645 -0.14894,0.0596 -0.1322,-0.005 -0.15908,-0.0323 -0.0686,-0.0686 z m -18.72341,-0.22695 c 0.0819,-0.0328 0.17979,-0.0288 0.2175,0.009 0.0377,0.0377 -0.0293,0.0645 -0.14894,0.0596 -0.13219,-0.005 -0.15908,-0.0323 -0.0686,-0.0686 z m -49.808801,-7.15652 c -0.141148,-0.17999 -0.137135,-0.18399 0.04284,-0.0428 0.189021,0.14824 0.249132,0.24143 0.155738,0.24143 -0.02356,0 -0.112925,-0.0894 -0.198582,-0.19858 z m -1.021277,-0.90781 c -0.141148,-0.17998 -0.137134,-0.18398 0.04284,-0.0428 0.10922,0.0857 0.198582,0.17502 0.198582,0.19858 0,0.0934 -0.09318,0.0333 -0.241426,-0.15574 z m -1.355816,-1.24822 -0.275099,-0.31206 0.312057,0.2751 c 0.291664,0.25712 0.364095,0.34901 0.275099,0.34901 -0.02033,0 -0.160751,-0.14042 -0.312057,-0.31205 z m -4.196101,-4.19858 -0.391055,-0.42554 0.425532,0.39106 c 0.234043,0.21508 0.425532,0.40657 0.425532,0.42553 0,0.0867 -0.09602,0.005 -0.460009,-0.39105 z m -1.196163,-1.30497 -0.216169,-0.25532 0.25532,0.21617 c 0.140425,0.11889 0.255319,0.23378 0.255319,0.25532 0,0.0908 -0.09132,0.0238 -0.29447,-0.21617 z m 22.407656,-1.07801 c -0.141149,-0.17999 -0.137135,-0.18399 0.04284,-0.0429 0.189022,0.14824 0.249133,0.24143 0.155738,0.24143 -0.02356,0 -0.112925,-0.0894 -0.198581,-0.19858 z m -1.128866,-1.02128 -0.275099,-0.31206 0.312057,0.2751 c 0.171631,0.15131 0.312056,0.29173 0.312056,0.31206 0,0.089 -0.09189,0.0166 -0.349014,-0.2751 z m -2.380498,-2.2695 -0.391055,-0.42554 0.425532,0.39106 c 0.234042,0.21508 0.425532,0.40657 0.425532,0.42553 0,0.0866 -0.09603,0.005 -0.460009,-0.39105 z m -1.990489,-2.09929 -0.216169,-0.25532 0.255319,0.21617 c 0.239936,0.20314 0.306978,0.29446 0.216169,0.29446 -0.02153,0 -0.136427,-0.11489 -0.255319,-0.25531 z m -0.968233,-1.07802 c -0.141148,-0.17998 -0.137135,-0.18399 0.04284,-0.0428 0.189021,0.14825 0.249132,0.24143 0.155738,0.24143 -0.02356,0 -0.112925,-0.0894 -0.198582,-0.19858 z m -0.680851,-0.79433 c -0.141148,-0.17998 -0.137135,-0.18398 0.04284,-0.0428 0.189021,0.14824 0.249132,0.24143 0.155738,0.24143 -0.02356,0 -0.112925,-0.0894 -0.198582,-0.19859 z m 44.075939,-6.24028 c 0.42387,-0.0219 1.0877,-0.0217 1.47517,0 0.38748,0.0221 0.0407,0.04 -0.77067,0.0398 -0.81135,0 -1.12838,-0.0183 -0.7045,-0.0402 z m 26.79916,-0.0576 c -0.0298,-0.078 -0.0406,-3.20567 -0.0239,-6.95035 l 0.0303,-6.80851 0.0275,6.8914 0.0275,6.89141 2.46808,0.0329 2.46809,0.0329 -2.47165,0.026 c -1.89228,0.0199 -2.48436,-0.007 -2.52589,-0.1158 z m -29.6975,-0.0468 c 0.078,-0.0315 0.20567,-0.0315 0.28369,0 0.078,0.0315 0.0142,0.0572 -0.14185,0.0572 -0.15603,0 -0.21986,-0.0258 -0.14184,-0.0572 z m 6.58156,0 c 0.078,-0.0315 0.20567,-0.0315 0.28369,0 0.078,0.0315 0.0142,0.0572 -0.14185,0.0572 -0.15602,0 -0.21985,-0.0258 -0.14184,-0.0572 z m 30.52615,-0.005 c 0.14115,-0.0271 0.34541,-0.0261 0.4539,0.002 0.10848,0.0284 -0.007,0.0506 -0.25664,0.0494 -0.24965,-0.001 -0.33842,-0.0245 -0.19726,-0.0516 z m -38.46232,-0.11073 c 0.0819,-0.0328 0.17979,-0.0288 0.21749,0.009 0.0377,0.0377 -0.0293,0.0645 -0.14893,0.0596 -0.1322,-0.005 -0.15908,-0.0323 -0.0686,-0.0686 z m 9.19149,0 c 0.0819,-0.0328 0.17979,-0.0288 0.2175,0.009 0.0377,0.0377 -0.0293,0.0645 -0.14894,0.0596 -0.1322,-0.005 -0.15908,-0.0323 -0.0686,-0.0686 z m 31.19858,0.002 c 0.078,-0.0315 0.20568,-0.0315 0.28369,0 0.078,0.0315 0.0142,0.0572 -0.14184,0.0572 -0.15603,0 -0.21986,-0.0258 -0.14185,-0.0572 z m -41.41135,-0.11583 c 0.0819,-0.0328 0.17979,-0.0288 0.2175,0.009 0.0377,0.0377 -0.0293,0.0645 -0.14894,0.0596 -0.13219,-0.005 -0.15908,-0.0323 -0.0686,-0.0686 z m 42.89362,0 c 0.0819,-0.0328 0.17979,-0.0288 0.2175,0.009 0.0377,0.0377 -0.0293,0.0645 -0.14894,0.0596 -0.13219,-0.005 -0.15908,-0.0323 -0.0686,-0.0686 z m 1.13475,-0.11348 c 0.0819,-0.0328 0.17979,-0.0288 0.2175,0.009 0.0377,0.0377 -0.0293,0.0645 -0.14893,0.0596 -0.1322,-0.005 -0.15909,-0.0323 -0.0686,-0.0686 z m 1.02128,-0.11347 c 0.0819,-0.0328 0.17979,-0.0288 0.2175,0.009 0.0377,0.0377 -0.0293,0.0645 -0.14894,0.0596 -0.1322,-0.005 -0.15908,-0.0323 -0.0686,-0.0686 z m 0.9078,-0.11348 c 0.0819,-0.0328 0.17979,-0.0288 0.2175,0.009 0.0377,0.0377 -0.0293,0.0645 -0.14894,0.0596 -0.13219,-0.005 -0.15908,-0.0323 -0.0686,-0.0686 z m -20.06383,-5.97954 c 0,-0.0236 0.0894,-0.11292 0.19858,-0.19858 0.17999,-0.14114 0.18399,-0.13713 0.0428,0.0429 -0.14824,0.18901 -0.24143,0.24913 -0.24143,0.15573 z m 1.02128,-0.92169 c 0.14657,-0.15603 0.29204,-0.28369 0.32324,-0.28369 0.0312,0 -0.0632,0.12766 -0.20977,0.28369 -0.14657,0.15603 -0.29204,0.28369 -0.32324,0.28369 -0.0312,0 0.0632,-0.12766 0.20977,-0.28369 z m -47.211787,-1.84397 -0.391055,-0.42553 0.425532,0.39106 c 0.396076,0.36398 0.477707,0.46 0.391055,0.46 -0.01896,0 -0.210453,-0.19149 -0.425532,-0.42553 z m 48.857177,0.19858 c 0.11296,-0.12482 0.23092,-0.22695 0.26213,-0.22695 0.0312,0 -0.0357,0.10213 -0.14866,0.22695 -0.11296,0.12482 -0.23092,0.22695 -0.26212,0.22695 -0.0312,0 0.0357,-0.10213 0.14865,-0.22695 z m -50.099296,-1.41844 c -0.275635,-0.28085 -0.475622,-0.51064 -0.444416,-0.51064 0.0312,0 0.282257,0.22979 0.557891,0.51064 0.275635,0.28085 0.475622,0.51064 0.444417,0.51064 -0.03121,0 -0.282257,-0.22979 -0.557892,-0.51064 z m -1.149227,-1.27659 c -0.141148,-0.17999 -0.137134,-0.18399 0.04284,-0.0429 0.10922,0.0857 0.198582,0.17502 0.198582,0.19858 0,0.0934 -0.09319,0.0333 -0.241426,-0.15573 z m 31.993203,-0.10589 c 0.0819,-0.0328 0.17979,-0.0288 0.2175,0.009 0.0377,0.0377 -0.0293,0.0645 -0.14894,0.0596 -0.1322,-0.005 -0.15909,-0.0323 -0.0686,-0.0686 z m 3.28369,0.002 c 0.078,-0.0315 0.20567,-0.0315 0.28368,0 0.078,0.0315 0.0142,0.0572 -0.14184,0.0572 -0.15603,0 -0.21986,-0.0258 -0.14184,-0.0572 z m 62.21277,-0.87549 c 0,-0.0236 0.0894,-0.11292 0.19858,-0.19858 0.17998,-0.14114 0.18399,-0.13714 0.0428,0.0429 -0.14825,0.18901 -0.24143,0.24913 -0.24143,0.15573 z m 1.98581,-1.88625 c 0.43353,-0.43688 0.81378,-0.79433 0.84498,-0.79433 0.0312,0 -0.29797,0.35745 -0.7315,0.79433 -0.43354,0.43688 -0.81378,0.79432 -0.84499,0.79432 -0.0312,0 0.29798,-0.35744 0.73151,-0.79432 z m -77.23434,-1.33334 c -0.14115,-0.17998 -0.13713,-0.18398 0.0429,-0.0428 0.18902,0.14824 0.24913,0.24143 0.15573,0.24143 -0.0236,0 -0.11292,-0.0894 -0.19858,-0.19859 z m 24.41164,-0.65248 c 0.14658,-0.15603 0.29204,-0.28369 0.32325,-0.28369 0.0312,0 -0.0632,0.12766 -0.20977,0.28369 -0.14658,0.15603 -0.29204,0.28369 -0.32325,0.28369 -0.0312,0 0.0632,-0.12766 0.20977,-0.28369 z m 54.58157,0.12737 c 0,-0.0236 0.0894,-0.11292 0.19858,-0.19859 0.17998,-0.14114 0.18399,-0.13713 0.0428,0.0429 -0.14825,0.18902 -0.24143,0.24914 -0.24143,0.15574 z m -80.97533,-1.4607 -0.21617,-0.25532 0.25532,0.21617 c 0.23994,0.20314 0.30698,0.29447 0.21617,0.29447 -0.0215,0 -0.13643,-0.1149 -0.25532,-0.25532 z m 27.75547,-0.0284 c 0.14657,-0.15603 0.29203,-0.28369 0.32324,-0.28369 0.0312,0 -0.0632,0.12766 -0.20977,0.28369 -0.14658,0.15603 -0.29204,0.28369 -0.32325,0.28369 -0.0312,0 0.0632,-0.12766 0.20978,-0.28369 z m 41.75886,-2.25562 c 0,-0.0236 0.0894,-0.11291 0.19858,-0.19858 0.17999,-0.14114 0.18399,-0.13713 0.0429,0.0428 -0.14824,0.18902 -0.24143,0.24914 -0.24143,0.15573 z m 1.75887,-1.65927 c 0.37056,-0.37447 0.69928,-0.68086 0.73048,-0.68086 0.0312,0 -0.24644,0.30639 -0.61701,0.68086 -0.37056,0.37446 -0.69928,0.68085 -0.73048,0.68085 -0.0312,0 0.24644,-0.30639 0.61701,-0.68085 z m 1.41844,-1.51803 c 0,-0.0236 0.0894,-0.11292 0.19858,-0.19858 0.17998,-0.14114 0.18399,-0.13714 0.0429,0.0428 -0.14825,0.18901 -0.24143,0.24913 -0.24143,0.15573 z M 0.80328486,126.11821 c 0.005445,-0.13219 0.0323336,-0.15908 0.0685579,-0.0686 0.0327796,0.0819 0.0287483,0.17979 -0.008959,0.2175 -0.0377069,0.0377 -0.0645266,-0.0293 -0.0595994,-0.14894 z m -0.11347518,-1.02127 c 0.005445,-0.1322 0.0323336,-0.15908 0.0685579,-0.0686 0.0327797,0.0819 0.0287483,0.17979 -0.008959,0.21749 -0.0377069,0.0377 -0.0645266,-0.0293 -0.0595994,-0.14893 z m -0.11347519,-1.02128 c 0.005445,-0.1322 0.0323336,-0.15908 0.0685579,-0.0686 0.0327796,0.0819 0.0287483,0.17979 -0.008959,0.2175 -0.0377069,0.0377 -0.0645266,-0.0293 -0.0595994,-0.14894 z m 223.77305551,0 c 0.005,-0.1322 0.0323,-0.15908 0.0686,-0.0686 0.0328,0.0819 0.0288,0.17979 -0.009,0.2175 -0.0377,0.0377 -0.0645,-0.0293 -0.0596,-0.14894 z m -194.269507,-0.9078 c 0.0054,-0.1322 0.03233,-0.15908 0.06856,-0.0686 0.03278,0.0819 0.02875,0.17979 -0.009,0.2175 -0.03771,0.0377 -0.06453,-0.0293 -0.0596,-0.14894 z m 19.517731,-0.11348 c 0.0054,-0.13219 0.03233,-0.15908 0.06856,-0.0686 0.03278,0.0819 0.02875,0.17979 -0.009,0.2175 -0.03771,0.0377 -0.06453,-0.0293 -0.0596,-0.14894 z M 0.47181787,122.89362 c 0,-0.15602 0.0257559,-0.21985 0.0572353,-0.14184 0.0314794,0.078 0.0314794,0.20567 0,0.28369 -0.0314794,0.078 -0.0572353,0.0142 -0.0572353,-0.14185 z m 223.99105213,0.0473 c 0.005,-0.1322 0.0323,-0.15908 0.0686,-0.0686 0.0328,0.0819 0.0288,0.17979 -0.009,0.2175 -0.0377,0.0377 -0.0645,-0.0293 -0.0596,-0.14894 z m -194.496463,-0.9078 c 0.0054,-0.1322 0.03233,-0.15908 0.06856,-0.0686 0.03278,0.0819 0.02875,0.17979 -0.009,0.21749 -0.03771,0.0377 -0.06453,-0.0293 -0.0596,-0.14893 z m 19.517732,0 c 0.0054,-0.1322 0.03233,-0.15908 0.06856,-0.0686 0.03278,0.0819 0.02875,0.17979 -0.009,0.21749 -0.03771,0.0377 -0.06453,-0.0293 -0.0596,-0.14893 z m 86.354611,-0.34043 c 0.005,-0.1322 0.0323,-0.15908 0.0686,-0.0686 0.0328,0.0819 0.0288,0.17979 -0.009,0.2175 -0.0377,0.0377 -0.0645,-0.0293 -0.0596,-0.14894 z M 0.34938412,121.57921 c 0.005445,-0.1322 0.0323337,-0.15908 0.0685579,-0.0686 0.0327796,0.0819 0.0287483,0.17979 -0.008959,0.21749 -0.0377069,0.0377 -0.0645266,-0.0293 -0.0595994,-0.14893 z m 224.22695588,0 c 0.005,-0.1322 0.0323,-0.15908 0.0686,-0.0686 0.0328,0.0819 0.0288,0.17979 -0.009,0.21749 -0.0377,0.0377 -0.0645,-0.0293 -0.0596,-0.14893 z M 49.370664,120.89836 c 0.0054,-0.1322 0.03233,-0.15908 0.06856,-0.0686 0.03278,0.0819 0.02875,0.17979 -0.009,0.2175 -0.03771,0.0377 -0.06453,-0.0293 -0.0596,-0.14893 z M 29.86189,120.7376 c 0,-0.15603 0.02576,-0.21986 0.05724,-0.14185 0.03148,0.078 0.03148,0.20568 0,0.28369 -0.03148,0.078 -0.05724,0.0142 -0.05724,-0.14184 z m 106.09033,-0.0662 c 0.005,-0.1322 0.0323,-0.15909 0.0686,-0.0686 0.0328,0.0819 0.0288,0.17979 -0.009,0.2175 -0.0377,0.0377 -0.0645,-0.0293 -0.0596,-0.14893 z m -40.964532,-0.34043 c 0.0054,-0.1322 0.03233,-0.15908 0.06856,-0.0686 0.03278,0.0819 0.02875,0.17979 -0.009,0.2175 -0.03771,0.0377 -0.06453,-0.0293 -0.0596,-0.14894 z m -94.73861579,-0.2175 c 0.002313,-0.18723 0.0277445,-0.25009 0.0565154,-0.13969 0.0287709,0.11042 0.0268788,0.26361 -0.004205,0.34043 -0.0310835,0.0768 -0.0546233,-0.0135 -0.0523104,-0.20074 z M 224.69878,120.05674 c 0,-0.15602 0.0258,-0.21985 0.0572,-0.14184 0.0315,0.078 0.0315,0.20567 0,0.28369 -0.0315,0.078 -0.0572,0.0142 -0.0572,-0.14185 z m -175.432634,-0.4539 c 0,-0.15602 0.02576,-0.21985 0.05724,-0.14184 0.03148,0.078 0.03148,0.20567 0,0.28369 -0.03148,0.078 -0.05724,0.0142 -0.05724,-0.14185 z m 22.91303,0.0473 c 0.0054,-0.1322 0.03233,-0.15908 0.06856,-0.0686 0.03278,0.0819 0.02875,0.17979 -0.009,0.2175 -0.03771,0.0377 -0.06453,-0.0293 -0.0596,-0.14894 z m -42.430761,-0.38771 c 0,-0.15603 0.02576,-0.21986 0.05724,-0.14185 0.03148,0.078 0.03148,0.20568 0,0.28369 -0.03148,0.078 -0.05724,0.0142 -0.05724,-0.14184 z m 106.326245,0 c 0,-0.15603 0.0258,-0.21986 0.0572,-0.14185 0.0315,0.078 0.0315,0.20568 0,0.28369 -0.0315,0.078 -0.0572,0.0142 -0.0572,-0.14184 z M 72.065701,118.4019 c 0.0054,-0.1322 0.03233,-0.15908 0.06856,-0.0686 0.03278,0.0819 0.02875,0.17979 -0.009,0.2175 -0.03771,0.0377 -0.06453,-0.0293 -0.0596,-0.14894 z m 22.695037,0 c 0.0054,-0.1322 0.03233,-0.15908 0.06856,-0.0686 0.03278,0.0819 0.02875,0.17979 -0.009,0.2175 -0.03771,0.0377 -0.06453,-0.0293 -0.0596,-0.14894 z M 0.13559702,118.1844 c 0.002313,-0.18723 0.0277445,-0.25008 0.0565154,-0.13968 0.0287709,0.11041 0.0268788,0.2636 -0.004205,0.34042 -0.0310835,0.0768 -0.0546233,-0.0135 -0.0523104,-0.20074 z m 224.68086298,0 c 0.002,-0.18723 0.0277,-0.25008 0.0565,-0.13968 0.0288,0.11041 0.0269,0.2636 -0.004,0.34042 -0.0311,0.0768 -0.0546,-0.0135 -0.0523,-0.20074 z M 49.156877,117.95745 c 0.0023,-0.18723 0.02774,-0.25008 0.05651,-0.13968 0.02877,0.11041 0.02688,0.2636 -0.0042,0.34042 -0.03108,0.0768 -0.05462,-0.0135 -0.05231,-0.20074 z M 29.639145,117.2766 c 0.0023,-0.18723 0.02774,-0.25009 0.05652,-0.13969 0.02877,0.11042 0.02688,0.26361 -0.0042,0.34043 -0.03108,0.0768 -0.05462,-0.0135 -0.05231,-0.20074 z m 65.017075,-0.17021 c 0,-0.15603 0.02576,-0.21986 0.05724,-0.14184 0.03148,0.078 0.03148,0.20567 0,0.28368 -0.03148,0.078 -0.05724,0.0142 -0.05724,-0.14184 z m -22.695037,-0.22695 c 0,-0.15603 0.02576,-0.21986 0.05724,-0.14184 0.03148,0.078 0.03148,0.20567 0,0.28368 -0.03148,0.078 -0.05724,0.0142 -0.05724,-0.14184 z m 64.260257,-4.25532 c -3e-5,-2.24681 0.0151,-3.18204 0.0337,-2.07829 0.0186,1.10374 0.0186,2.94204 7e-5,4.0851 -0.0185,1.14307 -0.0337,0.24 -0.0337,-2.00681 z m -87.166157,2.78014 c 0,-0.34326 0.02127,-0.48369 0.04727,-0.31205 0.026,0.17163 0.026,0.45248 0,0.62411 -0.026,0.17163 -0.04727,0.0312 -0.04727,-0.31206 z M 0.03723577,115.0071 c 5.0337e-4,-0.43688 0.0210136,-0.6017 0.0455782,-0.36626 0.0245646,0.23543 0.02415272,0.59288 -9.1529e-4,0.79432 -0.02506801,0.20144 -0.04516632,0.009 -0.04466291,-0.42806 z M 224.94505,114.89362 c 0,-0.43688 0.021,-0.6017 0.0456,-0.36626 0.0246,0.23544 0.0241,0.59289 -10e-4,0.79433 -0.0251,0.20144 -0.0452,0.009 -0.0447,-0.42807 z m -130.391606,0.22695 c 0.0013,-0.24964 0.0245,-0.33841 0.05164,-0.19725 0.02714,0.14115 0.02611,0.34541 -0.0023,0.4539 -0.0284,0.10848 -0.05061,-0.007 -0.04935,-0.25665 z m -22.683373,-1.24822 c -3.41e-4,-0.5617 0.01884,-0.8058 0.04264,-0.54243 0.0238,0.26336 0.02408,0.72293 6.81e-4,1.02127 -0.02345,0.29834 -0.04292,0.0829 -0.04327,-0.47884 z m -42.32114,-1.36171 c 1.14e-4,-0.93617 0.01774,-1.30404 0.03906,-0.8175 0.02132,0.48654 0.02119,1.25249 -3.4e-4,1.70212 -0.02148,0.44964 -0.03893,0.0516 -0.03877,-0.88462 z m 42.32114,-1.3617 c -3.41e-4,-0.5617 0.01884,-0.80579 0.04264,-0.54243 0.0238,0.26337 0.02408,0.72294 6.81e-4,1.02128 -0.0235,0.29834 -0.04298,0.0828 -0.04332,-0.47885 z m 153.075899,-1.07801 c 0,-0.46809 0.02,-0.65958 0.0445,-0.42553 0.0245,0.23404 0.0245,0.61702 0,0.85106 -0.0245,0.23404 -0.0445,0.0426 -0.0445,-0.42553 z M 0.03723577,110.01419 c 5.0337e-4,-0.43688 0.0210136,-0.6017 0.0455782,-0.36626 0.0245646,0.23543 0.02415272,0.59288 -9.1529e-4,0.79432 -0.02506802,0.20145 -0.04516632,0.009 -0.04466291,-0.42806 z M 194.73237,110.57211 c 0.005,-0.13219 0.0323,-0.15908 0.0686,-0.0686 0.0328,0.0819 0.0288,0.17979 -0.009,0.2175 -0.0377,0.0377 -0.0645,-0.0293 -0.0596,-0.14894 z M 94.553444,109.90072 c 0.0013,-0.24965 0.0245,-0.33842 0.05164,-0.19726 0.02714,0.14115 0.02611,0.34541 -0.0023,0.4539 -0.0284,0.10849 -0.05061,-0.007 -0.04935,-0.25664 z m -45.501258,-0.28369 c 0,-0.28085 0.02213,-0.39575 0.04918,-0.25532 0.02705,0.14042 0.02705,0.37021 0,0.51064 -0.02705,0.14042 -0.04918,0.0255 -0.04918,-0.25532 z m 22.908997,-1.47518 c 0,-0.15603 0.02576,-0.21986 0.05724,-0.14184 0.03148,0.078 0.03148,0.20567 0,0.28368 -0.03148,0.078 -0.05724,0.0142 -0.05724,-0.14184 z M 94.65622,107.9149 c 0,-0.15603 0.02576,-0.21986 0.05724,-0.14184 0.03148,0.078 0.03148,0.20567 0,0.28368 -0.03148,0.078 -0.05724,0.0142 -0.05724,-0.14184 z m -65.017075,-0.17021 c 0.0023,-0.18724 0.02774,-0.2501 0.05652,-0.13969 0.02877,0.11041 0.02688,0.2636 -0.0042,0.34043 -0.03108,0.0768 -0.05462,-0.0135 -0.05231,-0.20074 z m 165.442615,-0.17022 c 0,-0.15602 0.0258,-0.21985 0.0572,-0.14184 0.0315,0.078 0.0315,0.20567 0,0.28369 -0.0315,0.078 -0.0572,0.0142 -0.0572,-0.14185 z M 49.156877,107.06384 c 0.0023,-0.18724 0.02774,-0.2501 0.05651,-0.13969 0.02877,0.11041 0.02688,0.2636 -0.0042,0.34043 -0.03108,0.0768 -0.05462,-0.0135 -0.05231,-0.20074 z M 0.13559702,106.83689 c 0.002313,-0.18724 0.0277445,-0.2501 0.0565154,-0.13969 0.0287709,0.11041 0.0268788,0.2636 -0.004205,0.34043 -0.0310835,0.0768 -0.0546233,-0.0135 -0.0523104,-0.20074 z m 224.68086298,0 c 0.002,-0.18724 0.0277,-0.2501 0.0565,-0.13969 0.0288,0.11041 0.0269,0.2636 -0.004,0.34043 -0.0311,0.0768 -0.0546,-0.0135 -0.0523,-0.20074 z M 72.065701,106.60048 c 0.0054,-0.13219 0.03233,-0.15908 0.06856,-0.0686 0.03278,0.0819 0.02875,0.17979 -0.009,0.2175 -0.03771,0.0377 -0.06453,-0.0293 -0.0596,-0.14894 z m 22.695037,0 c 0.0054,-0.13219 0.03233,-0.15908 0.06856,-0.0686 0.03278,0.0819 0.02875,0.17979 -0.009,0.2175 -0.03771,0.0377 -0.06453,-0.0293 -0.0596,-0.14894 z m 100.434492,-0.38771 c 0,-0.15603 0.0258,-0.21986 0.0572,-0.14184 0.0315,0.078 0.0315,0.20567 0,0.28369 -0.0315,0.078 -0.0572,0.0142 -0.0572,-0.14185 z m -59.12953,-0.29314 c 0.005,-0.13219 0.0323,-0.15908 0.0686,-0.0686 0.0328,0.0819 0.0288,0.17979 -0.009,0.21749 -0.0377,0.0377 -0.0645,-0.0293 -0.0596,-0.14893 z M 29.748415,105.75887 c 0,-0.15603 0.02576,-0.21986 0.05724,-0.14184 0.03148,0.078 0.03148,0.20567 0,0.28369 -0.03148,0.078 -0.05724,0.0142 -0.05724,-0.14185 z M 184.52857,105.6454 c 0,-0.15603 0.0258,-0.21986 0.0572,-0.14185 0.0315,0.078 0.0315,0.20568 0,0.28369 -0.0315,0.078 -0.0572,0.0142 -0.0572,-0.14184 z M 49.257189,105.35225 c 0.0054,-0.13219 0.03233,-0.15908 0.06856,-0.0686 0.03278,0.0819 0.02875,0.17979 -0.009,0.2175 -0.03771,0.0377 -0.06453,-0.0293 -0.0596,-0.14894 z m 22.921987,0 c 0.0054,-0.13219 0.03233,-0.15908 0.06856,-0.0686 0.03278,0.0819 0.02875,0.17979 -0.009,0.2175 -0.03771,0.0377 -0.06453,-0.0293 -0.0596,-0.14894 z m 152.519604,-0.3877 c 0,-0.15603 0.0258,-0.21986 0.0572,-0.14185 0.0315,0.078 0.0315,0.20568 0,0.28369 -0.0315,0.078 -0.0572,0.0142 -0.0572,-0.14184 z M 0.2448675,104.85107 c 0,-0.15603 0.0257559,-0.21986 0.0572353,-0.14184 0.0314794,0.078 0.0314794,0.20567 0,0.28368 -0.0314794,0.078 -0.0572353,0.0142 -0.0572353,-0.14184 z M 94.987688,104.6714 c 0.0054,-0.13219 0.03233,-0.15908 0.06856,-0.0686 0.03278,0.0819 0.02875,0.17979 -0.009,0.2175 -0.03771,0.0377 -0.06453,-0.0293 -0.0596,-0.14894 z m 40.964532,-0.11347 c 0.005,-0.1322 0.0323,-0.15908 0.0686,-0.0686 0.0328,0.0819 0.0288,0.17979 -0.009,0.21749 -0.0377,0.0377 -0.0645,-0.0293 -0.0596,-0.14893 z m 59.3649,-0.16076 c 0,-0.21844 0.0234,-0.3078 0.0519,-0.19858 0.0285,0.10922 0.0285,0.28794 0,0.39716 -0.0285,0.10922 -0.0519,0.0199 -0.0519,-0.19858 z M 29.86189,104.28369 c 0,-0.15602 0.02576,-0.21985 0.05724,-0.14184 0.03148,0.078 0.03148,0.20567 0,0.28369 -0.03148,0.078 -0.05724,0.0142 -0.05724,-0.14185 z m 19.508774,-0.17966 c 0.0054,-0.1322 0.03233,-0.15909 0.06856,-0.0686 0.03278,0.0819 0.02875,0.17979 -0.009,0.21749 -0.03771,0.0377 -0.06453,-0.0293 -0.0596,-0.14893 z m 135.271376,-0.0473 c 0,-0.15602 0.0258,-0.21985 0.0572,-0.14184 0.0315,0.078 0.0315,0.20567 0,0.28369 -0.0315,0.078 -0.0572,0.0142 -0.0572,-0.14185 z m -48.80329,-0.52009 c 0.005,-0.13219 0.0323,-0.15908 0.0686,-0.0686 0.0328,0.0819 0.0288,0.17979 -0.009,0.2175 -0.0377,0.0377 -0.0645,-0.0293 -0.0596,-0.14894 z M 0.34938412,103.42317 c 0.005445,-0.13219 0.0323337,-0.15908 0.0685579,-0.0686 0.0327796,0.0819 0.0287483,0.17978 -0.008959,0.21749 -0.0377069,0.0377 -0.0645266,-0.0293 -0.0595994,-0.14894 z M 224.58531,103.37589 c 0,-0.15603 0.0258,-0.21986 0.0572,-0.14184 0.0315,0.078 0.0315,0.20567 0,0.28369 -0.0315,0.078 -0.0572,0.0142 -0.0572,-0.14185 z M 29.966407,102.96927 c 0.0054,-0.13219 0.03233,-0.15908 0.06856,-0.0685 0.03278,0.0819 0.02875,0.17978 -0.009,0.21749 -0.03771,0.0377 -0.06453,-0.0293 -0.0596,-0.14894 z m 19.517732,0 c 0.0054,-0.13219 0.03233,-0.15908 0.06856,-0.0685 0.03278,0.0819 0.02875,0.17978 -0.009,0.21749 -0.03771,0.0377 -0.06453,-0.0293 -0.0596,-0.14894 z m -49.01232113,-0.8416 c 0,-0.15603 0.0257559,-0.21986 0.0572353,-0.14185 0.0314794,0.078 0.0314794,0.20568 0,0.28369 -0.0314794,0.078 -0.0572353,0.0142 -0.0572353,-0.14184 z M 224.46287,102.06147 c 0.005,-0.13219 0.0323,-0.15908 0.0686,-0.0686 0.0328,0.0819 0.0288,0.17979 -0.009,0.2175 -0.0377,0.0377 -0.0645,-0.0293 -0.0596,-0.14894 z M 49.597614,101.948 c 0.0054,-0.1322 0.03233,-0.15908 0.06856,-0.0686 0.03278,0.0819 0.02875,0.17979 -0.009,0.21749 -0.03771,0.0377 -0.06453,-0.0293 -0.0596,-0.14893 z m -19.517731,-0.11348 c 0.0054,-0.13219 0.03233,-0.15908 0.06856,-0.0686 0.03278,0.0819 0.02875,0.17979 -0.009,0.2175 -0.03771,0.0377 -0.06453,-0.0293 -0.0596,-0.14894 z M 184.7849,99.9149 c 1.1e-4,-1.185816 0.0169,-1.655505 0.0374,-1.043752 0.0205,0.611753 0.0204,1.581962 0,2.156032 -0.0205,0.57406 -0.0373,0.0735 -0.0372,-1.11228 z m 10.66414,0.22695 c 0,-0.873759 0.018,-1.216206 0.0396,-0.760993 0.0216,0.455212 0.0215,1.170103 0,1.588653 -0.0218,0.41855 -0.0394,0.0461 -0.0393,-0.82766 z M 0.57633449,100.92672 c 0.005445,-0.13219 0.0323336,-0.15908 0.0685579,-0.0686 0.0327796,0.0819 0.0287483,0.17979 -0.008959,0.2175 -0.0377069,0.0377 -0.0645266,-0.0293 -0.0595994,-0.14894 z m 223.77305551,0 c 0.005,-0.13219 0.0323,-0.15908 0.0686,-0.0686 0.0328,0.0819 0.0288,0.17979 -0.009,0.2175 -0.0377,0.0377 -0.0645,-0.0293 -0.0596,-0.14894 z M 0.68980968,99.905444 c 0.005445,-0.132193 0.0323336,-0.159081 0.0685579,-0.06856 0.0327797,0.08192 0.0287483,0.179786 -0.008959,0.217496 -0.0377069,0.0377 -0.0645266,-0.0293 -0.0595994,-0.148937 z m 0.11347518,-1.021277 c 0.005445,-0.132193 0.0323336,-0.159081 0.0685579,-0.06856 0.0327796,0.08191 0.0287483,0.179788 -0.008959,0.217494 -0.0377069,0.03771 -0.0645266,-0.02931 -0.0595994,-0.148936 z M 184.64624,95.716318 c 0.002,-0.187234 0.0277,-0.250093 0.0565,-0.139685 0.0288,0.110408 0.0269,0.2636 -0.004,0.340426 -0.0311,0.07683 -0.0546,-0.01351 -0.0523,-0.200741 z m 10.66667,0 c 0.002,-0.187234 0.0277,-0.250093 0.0565,-0.139685 0.0288,0.110408 0.0269,0.2636 -0.004,0.340426 -0.0311,0.07683 -0.0546,-0.01351 -0.0523,-0.200741 z m -10.78434,-1.531915 c 0,-0.156029 0.0258,-0.219858 0.0572,-0.141844 0.0315,0.07801 0.0315,0.205674 0,0.283688 -0.0315,0.07801 -0.0572,0.01418 -0.0572,-0.141844 z m 10.66666,-0.226951 c 0,-0.156028 0.0258,-0.219858 0.0572,-0.141844 0.0315,0.07802 0.0315,0.205674 0,0.283688 -0.0315,0.07802 -0.0572,0.01418 -0.0572,-0.141844 z m -10.7891,-0.973995 c 0.005,-0.132192 0.0323,-0.15908 0.0686,-0.06856 0.0328,0.08191 0.0288,0.179788 -0.009,0.217495 -0.0377,0.03771 -0.0645,-0.02932 -0.0596,-0.148937 z m 10.67563,-0.387707 c 0,-0.156028 0.0258,-0.219858 0.0572,-0.141844 0.0315,0.07801 0.0315,0.205674 0,0.283688 -0.0315,0.07801 -0.0572,0.01418 -0.0572,-0.141844 z m -93.63495,-3.901 c 0,-0.02356 0.0894,-0.112925 0.19859,-0.198581 0.17997,-0.141149 0.18399,-0.137135 0.0428,0.04284 -0.14824,0.189022 -0.24143,0.249133 -0.24143,0.155738 z m 27.79283,-0.382688 -0.27509,-0.312057 0.31205,0.275099 c 0.29167,0.257123 0.3641,0.349015 0.2751,0.349015 -0.0203,0 -0.16075,-0.140426 -0.31206,-0.312057 z m -1.30715,-1.304965 -0.21617,-0.255319 0.25532,0.216169 c 0.23993,0.203146 0.30697,0.29447 0.21617,0.29447 -0.0215,0 -0.13643,-0.114894 -0.25532,-0.25532 z m 8.29293,-8.879433 0.002,-5.787234 10.26951,-9.08e-4 10.2695,-9.08e-4 -10.2401,0.02987 -10.2401,0.02987 -0.0309,5.758266 -0.0309,5.758265 0.002,-5.787235 z M 81.134757,82.56709 c 0,-0.02356 0.08936,-0.112925 0.198581,-0.198581 0.179979,-0.141149 0.183992,-0.137135 0.04284,0.04284 -0.148241,0.189022 -0.241425,0.249133 -0.241425,0.155738 z m 32.092203,-0.261622 c 0.0819,-0.03278 0.17978,-0.02875 0.21749,0.009 0.0377,0.03771 -0.0293,0.06453 -0.14893,0.0596 -0.1322,-0.0054 -0.15909,-0.03233 -0.0686,-0.06856 z m 3.73759,0.0024 c 0.078,-0.03148 0.20567,-0.03148 0.28368,0 0.078,0.03148 0.0142,0.05724 -0.14184,0.05724 -0.15603,0 -0.21986,-0.02576 -0.14184,-0.05724 z M 82.156033,81.418445 c 0.146582,-0.156029 0.292043,-0.283688 0.323249,-0.283688 0.03121,0 -0.06319,0.127659 -0.209774,0.283688 -0.146581,0.156028 -0.292043,0.283688 -0.323248,0.283688 -0.03121,0 0.06319,-0.12766 0.209773,-0.283688 z m 51.162827,-1.276596 c -0.14114,-0.179979 -0.13713,-0.183992 0.0428,-0.04284 0.10922,0.08566 0.19858,0.175019 0.19858,0.198582 0,0.09339 -0.0932,0.03328 -0.24143,-0.155738 z M 84.198587,79.375891 c 0.146581,-0.156028 0.292043,-0.283688 0.323248,-0.283688 0.03121,0 -0.06319,0.12766 -0.209773,0.283688 -0.146582,0.156029 -0.292043,0.283688 -0.323249,0.283688 -0.03121,0 0.06319,-0.127659 0.209774,-0.283688 z m 0.907801,-0.780432 c 0,-0.02356 0.08936,-0.112925 0.198582,-0.198582 0.179978,-0.141148 0.183992,-0.137134 0.04284,0.04284 -0.14824,0.189021 -0.241425,0.249132 -0.241425,0.155738 z M 130.70893,77.53192 c -0.14114,-0.179979 -0.13713,-0.183993 0.0428,-0.04284 0.10922,0.08566 0.19858,0.175018 0.19858,0.198581 0,0.0934 -0.0932,0.03328 -0.24143,-0.155737 z m -27.58126,-6.800921 c 0.0819,-0.03278 0.17978,-0.02875 0.21749,0.009 0.0377,0.03771 -0.0293,0.06453 -0.14894,0.0596 -0.13219,-0.0054 -0.15908,-0.03233 -0.0686,-0.06856 z m 1.8156,-0.226951 c 0.0819,-0.03278 0.17979,-0.02875 0.21749,0.009 0.0377,0.03771 -0.0293,0.06453 -0.14893,0.0596 -0.1322,-0.0054 -0.15908,-0.03233 -0.0686,-0.06856 z m 1.35461,-0.111111 c 0.078,-0.03148 0.20567,-0.03148 0.28369,0 0.078,0.03148 0.0142,0.05724 -0.14185,0.05724 -0.15603,0 -0.21986,-0.02576 -0.14184,-0.05724 z m 7.15603,-0.0024 c 0.0819,-0.03278 0.17979,-0.02875 0.2175,0.009 0.0377,0.03771 -0.0293,0.06453 -0.14894,0.0596 -0.1322,-0.0054 -0.15909,-0.03233 -0.0686,-0.06856 z m -5.11348,-0.118051 c 0.20284,-0.02517 0.53475,-0.02517 0.73759,0 0.20284,0.02517 0.0369,0.04577 -0.36879,0.04577 -0.40568,0 -0.57163,-0.0206 -0.3688,-0.04577 z m 2.83891,-1.13e-4 c 0.20396,-0.02526 0.51034,-0.02473 0.68086,0.0012 0.17051,0.02589 0.004,0.04656 -0.37083,0.04592 -0.37447,-6.81e-4 -0.51398,-0.02182 -0.31003,-0.04708 z M 65.02128,64.411061 c 0,-0.02356 0.08936,-0.112925 0.198582,-0.198582 0.179978,-0.141148 0.183992,-0.137134 0.04284,0.04284 -0.148241,0.189021 -0.241426,0.249132 -0.241426,0.155738 z m 107.10609,-0.609639 c -0.14114,-0.179978 -0.13713,-0.183992 0.0428,-0.04284 0.10922,0.08566 0.19858,0.175018 0.19858,0.198581 0,0.0934 -0.0932,0.03328 -0.24143,-0.155738 z M 66.269507,62.935883 c 0,-0.02356 0.08936,-0.112924 0.198582,-0.198581 0.179979,-0.141148 0.183992,-0.137135 0.04284,0.04284 -0.148241,0.189021 -0.241426,0.249132 -0.241426,0.155737 z m 104.443123,-0.779851 -0.21617,-0.255319 0.25532,0.216169 c 0.23994,0.203146 0.30698,0.294469 0.21617,0.294469 -0.0215,0 -0.13643,-0.114893 -0.25532,-0.255319 z M 67.347522,61.7305 c 0.112963,-0.124823 0.230919,-0.22695 0.262125,-0.22695 0.03121,0 -0.03569,0.102127 -0.14865,0.22695 -0.112963,0.124823 -0.23092,0.22695 -0.262125,0.22695 -0.03121,0 0.03569,-0.102127 0.14865,-0.22695 z m 102.122318,-0.93617 -0.44855,-0.48227 0.48227,0.448562 c 0.44851,0.417158 0.53441,0.515977 0.44855,0.515977 -0.0185,0 -0.23555,-0.217021 -0.48227,-0.482269 z m -2.66132,-2.638298 c -0.27563,-0.280851 -0.47562,-0.510638 -0.44441,-0.510638 0.0312,0 0.28225,0.229787 0.55789,0.510638 0.27563,0.280851 0.47562,0.510638 0.44441,0.510638 -0.0312,0 -0.28226,-0.229787 -0.55789,-0.510638 z M 48.113478,57.942975 c 0,-0.02356 0.08936,-0.112924 0.198582,-0.198581 0.179978,-0.141149 0.183992,-0.137135 0.04284,0.04284 -0.14824,0.189022 -0.241425,0.249133 -0.241425,0.155738 z m 23.035462,0.0073 c 0,-0.01953 0.165958,-0.185486 0.368795,-0.368794 l 0.368794,-0.333287 -0.333287,0.368794 c -0.31067,0.343763 -0.404302,0.420948 -0.404302,0.333282 z m 94.16992,-1.184356 c -0.14114,-0.179979 -0.13713,-0.183992 0.0428,-0.04284 0.18902,0.148241 0.24914,0.241425 0.15574,0.241425 -0.0236,0 -0.11292,-0.08936 -0.19859,-0.198581 z m -92.921693,0.04226 c 0,-0.02356 0.08936,-0.112925 0.198582,-0.198582 0.179978,-0.141148 0.183992,-0.137135 0.04284,0.04284 -0.148241,0.189021 -0.241426,0.249132 -0.241426,0.155738 z M 49.361705,56.467798 c 0,-0.02356 0.08936,-0.112925 0.198582,-0.198582 0.179978,-0.141148 0.183992,-0.137134 0.04284,0.04284 -0.14824,0.189021 -0.241425,0.249133 -0.241425,0.155738 z M 180.07064,56.08511 c -0.14114,-0.179979 -0.13714,-0.183992 0.0429,-0.04284 0.18901,0.148241 0.24913,0.241425 0.15573,0.241425 -0.0236,0 -0.11292,-0.08936 -0.19858,-0.198581 z m -15.65958,-0.113475 c -0.14114,-0.179979 -0.13713,-0.183993 0.0429,-0.04284 0.18902,0.14824 0.24914,0.241425 0.15573,0.241425 -0.0236,0 -0.11292,-0.08936 -0.19858,-0.198581 z M 50.326244,55.37589 c 0.112964,-0.124823 0.23092,-0.226951 0.262126,-0.226951 0.0312,0 -0.03569,0.102128 -0.148651,0.226951 -0.112963,0.124823 -0.230919,0.22695 -0.262125,0.22695 -0.03121,0 0.03569,-0.102127 0.14865,-0.22695 z M 179.38979,55.29078 c -0.14114,-0.179978 -0.13714,-0.183992 0.0428,-0.04284 0.18902,0.14824 0.24914,0.241425 0.15574,0.241425 -0.0236,0 -0.11292,-0.08936 -0.19858,-0.198582 z m -16.45391,-0.567375 c -0.14114,-0.179979 -0.13713,-0.183993 0.0429,-0.04284 0.10922,0.08566 0.19858,0.175018 0.19858,0.198581 0,0.0934 -0.0932,0.03328 -0.24143,-0.155737 z m 15.60654,-0.397164 -0.21617,-0.255319 0.25532,0.216169 c 0.23993,0.203146 0.30697,0.29447 0.21617,0.29447 -0.0215,0 -0.13643,-0.114894 -0.25532,-0.25532 z m -127.251637,-0.0071 c 0,-0.01953 0.165958,-0.185487 0.368795,-0.368795 l 0.368794,-0.333287 -0.333287,0.368795 c -0.31067,0.343768 -0.404302,0.420953 -0.404302,0.333287 z M 177.24824,52.936173 c -0.27563,-0.280851 -0.47562,-0.510638 -0.44442,-0.510638 0.0312,0 0.28226,0.229787 0.55789,0.510638 0.27563,0.280851 0.47562,0.510639 0.44442,0.510639 -0.0312,0 -0.28226,-0.229788 -0.55789,-0.510639 z M 55.035464,50.574425 c 0,-0.01953 0.165958,-0.185487 0.368795,-0.368795 l 0.368794,-0.333287 -0.333287,0.368795 c -0.31067,0.343768 -0.404302,0.420953 -0.404302,0.333287 z m 119.313816,-0.560238 -0.44856,-0.482269 0.48227,0.448562 c 0.26525,0.246708 0.48227,0.46373 0.48227,0.482269 0,0.08585 -0.0988,-5.5e-5 -0.51598,-0.448562 z M 56.680854,49.02128 c 0.112964,-0.124823 0.23092,-0.226951 0.262126,-0.226951 0.03121,0 -0.03569,0.102128 -0.14865,0.226951 -0.112964,0.124822 -0.23092,0.22695 -0.262126,0.22695 -0.0312,0 0.03569,-0.102128 0.14865,-0.22695 z m 116.187806,-0.368795 -0.21617,-0.255319 0.25532,0.216169 c 0.23993,0.203146 0.30697,0.294469 0.21617,0.294469 -0.0215,0 -0.13643,-0.114893 -0.25532,-0.255319 z m -115.336742,-0.3549 c 0,-0.02356 0.08936,-0.112925 0.198582,-0.198582 0.179978,-0.141148 0.183992,-0.137135 0.04284,0.04284 -0.148241,0.189021 -0.241426,0.249132 -0.241426,0.155738 z m 0.794327,-0.680851 c 0,-0.02356 0.08936,-0.112925 0.198581,-0.198582 0.179979,-0.141148 0.183992,-0.137135 0.04284,0.04284 -0.148241,0.189021 -0.241425,0.249132 -0.241425,0.155738 z m 49.453905,-6.616233 c 0.0819,-0.03278 0.17979,-0.02875 0.21749,0.009 0.0377,0.03771 -0.0293,0.06453 -0.14893,0.0596 -0.1322,-0.0054 -0.15908,-0.03233 -0.0686,-0.06856 z m 20.08511,-0.226951 c 0.0819,-0.03278 0.17979,-0.02875 0.21749,0.009 0.0377,0.03771 -0.0293,0.06453 -0.14893,0.0596 -0.1322,-0.0054 -0.15908,-0.03233 -0.0686,-0.06856 z M 110.7305,40.660075 c 0.0819,-0.03278 0.17979,-0.02875 0.2175,0.009 0.0377,0.03771 -0.0293,0.06453 -0.14894,0.0596 -0.13219,-0.0054 -0.15908,-0.03233 -0.0686,-0.06856 z m 16,0 c 0.0819,-0.03278 0.17979,-0.02875 0.2175,0.009 0.0377,0.03771 -0.0293,0.06453 -0.14893,0.0596 -0.1322,-0.0054 -0.15909,-0.03233 -0.0686,-0.06856 z m -14.75886,-0.111111 c 0.078,-0.03148 0.20567,-0.03148 0.28369,0 0.078,0.03148 0.0142,0.05723 -0.14185,0.05723 -0.15603,0 -0.21986,-0.02576 -0.14184,-0.05723 z m 13.51064,-0.0024 c 0.0819,-0.03278 0.17979,-0.02875 0.21749,0.009 0.0377,0.03771 -0.0293,0.06453 -0.14893,0.0596 -0.1322,-0.0054 -0.15908,-0.03233 -0.0686,-0.06856 z m -11.8631,-0.114596 c 0.11042,-0.02877 0.26361,-0.02688 0.34043,0.0042 0.0768,0.03108 -0.0135,0.05462 -0.20074,0.05231 -0.18723,-0.0023 -0.25009,-0.02775 -0.13969,-0.05652 z m 10.15388,0.0035 c 0.078,-0.03148 0.20567,-0.03148 0.28368,0 0.078,0.03148 0.0142,0.05723 -0.14184,0.05723 -0.15603,0 -0.21986,-0.02576 -0.14184,-0.05723 z m -7.60284,-0.120411 c 0.20284,-0.02517 0.53475,-0.02517 0.73759,0 0.20284,0.02517 0.0369,0.04577 -0.3688,0.04577 -0.40567,0 -0.57163,-0.0206 -0.36879,-0.04577 z m 4.76799,-1.14e-4 c 0.20396,-0.02526 0.51034,-0.02473 0.68085,0.0012 0.17052,0.02589 0.004,0.04655 -0.37083,0.04592 -0.37446,-6.81e-4 -0.51397,-0.02182 -0.31002,-0.04708 z m -94.498492,-0.30107 c 0,-0.02356 0.08936,-0.112925 0.198581,-0.198581 0.179979,-0.141149 0.183993,-0.137135 0.04284,0.04284 -0.14824,0.189022 -0.241425,0.249133 -0.241425,0.155738 z M 198.34014,39.858158 c -0.14114,-0.179978 -0.13713,-0.183992 0.0429,-0.04284 0.18902,0.14824 0.24914,0.241425 0.15573,0.241425 -0.0236,0 -0.11292,-0.08936 -0.19858,-0.198582 z M 27.120569,39.21957 c 0,-0.02356 0.08936,-0.112925 0.198582,-0.198582 0.179978,-0.141148 0.183992,-0.137134 0.04284,0.04284 -0.14824,0.189021 -0.241425,0.249133 -0.241425,0.155738 z M 197.65929,39.063832 c -0.14114,-0.179978 -0.13713,-0.183992 0.0429,-0.04284 0.18902,0.148241 0.24913,0.241426 0.15573,0.241426 -0.0236,0 -0.11292,-0.08936 -0.19858,-0.198582 z m -0.68085,-0.794326 c -0.14114,-0.179979 -0.13713,-0.183992 0.0428,-0.04284 0.18901,0.148241 0.24913,0.241425 0.15573,0.241425 -0.0236,0 -0.11292,-0.08936 -0.19858,-0.198581 z M 28.879434,37.21986 c 0.112964,-0.124822 0.23092,-0.22695 0.262126,-0.22695 0.0312,0 -0.03569,0.102128 -0.14865,0.22695 -0.112964,0.124823 -0.23092,0.226951 -0.262126,0.226951 -0.03121,0 0.03569,-0.102128 0.14865,-0.226951 z m 167.138166,-0.02837 -0.21617,-0.25532 0.25532,0.21617 c 0.23993,0.203145 0.30697,0.294469 0.21617,0.294469 -0.0215,0 -0.13643,-0.114894 -0.25532,-0.255319 z M 29.843973,36.163076 c 0,-0.01953 0.165958,-0.185486 0.368795,-0.368794 l 0.368794,-0.333287 -0.333287,0.368794 c -0.31067,0.343769 -0.404302,0.420954 -0.404302,0.333287 z m 164.929047,-0.333287 -0.33329,-0.368794 0.36879,0.333287 c 0.34378,0.31067 0.42096,0.404302 0.33329,0.404302 -0.0195,0 -0.18549,-0.165958 -0.36879,-0.368795 z M 32.851066,33.021279 c 0.496362,-0.499291 0.928009,-0.907802 0.959215,-0.907802 0.0312,0 -0.349378,0.408511 -0.84574,0.907802 -0.496362,0.49929 -0.928009,0.907801 -0.959215,0.907801 -0.03121,0 0.349378,-0.408511 0.84574,-0.907801 z m 159.146434,-0.08511 -0.96203,-0.992908 0.99291,0.962034 c 0.92218,0.893508 1.0446,1.023782 0.96203,1.023782 -0.017,0 -0.46378,-0.446809 -0.99291,-0.992908 z M 35.517733,30.489317 c 0,-0.01953 0.165957,-0.185487 0.368794,-0.368794 l 0.368794,-0.333287 -0.333287,0.368794 c -0.31067,0.343769 -0.404301,0.420953 -0.404301,0.333287 z m 153.581527,-0.333287 -0.33329,-0.368794 0.36879,0.333287 c 0.34378,0.31067 0.42096,0.404302 0.33329,0.404302 -0.0195,0 -0.18549,-0.165958 -0.36879,-0.368795 z m -57.82975,-0.729998 c 0.0819,-0.03278 0.17979,-0.02875 0.2175,0.009 0.0377,0.03771 -0.0293,0.06453 -0.14894,0.0596 -0.1322,-0.0054 -0.15908,-0.03233 -0.0686,-0.06856 z m -94.106387,-0.48986 c 0.112963,-0.124823 0.23092,-0.22695 0.262125,-0.22695 0.03121,0 -0.03569,0.102127 -0.14865,0.22695 -0.112963,0.124823 -0.23092,0.22695 -0.262125,0.22695 -0.03121,0 0.03569,-0.102127 0.14865,-0.22695 z m 65.056737,0.149434 c 0.0819,-0.03278 0.17979,-0.02875 0.2175,0.009 0.0377,0.03771 -0.0293,0.06453 -0.14894,0.0596 -0.13219,-0.0054 -0.15908,-0.03233 -0.0686,-0.06856 z m 26.5532,0 c 0.0819,-0.03278 0.17979,-0.02875 0.2175,0.009 0.0377,0.03771 -0.0293,0.06453 -0.14894,0.0596 -0.1322,-0.0054 -0.15908,-0.03233 -0.0686,-0.06856 z m 58.96085,-0.177803 -0.21617,-0.255319 0.25532,0.216169 c 0.23993,0.203146 0.30697,0.294469 0.21617,0.294469 -0.0215,0 -0.13643,-0.114893 -0.25532,-0.255319 z m -84.49277,0.06433 c 0.0819,-0.03278 0.17979,-0.02875 0.2175,0.009 0.0377,0.03771 -0.0293,0.06453 -0.14894,0.0596 -0.13219,-0.0054 -0.15908,-0.03233 -0.0686,-0.06856 z m 24.51064,0 c 0.0819,-0.03278 0.17979,-0.02875 0.2175,0.009 0.0377,0.03771 -0.0293,0.06453 -0.14894,0.0596 -0.1322,-0.0054 -0.15908,-0.03233 -0.0686,-0.06856 z M 104.25533,28.86102 c 0.078,-0.03148 0.20567,-0.03148 0.28368,0 0.078,0.03148 0.0142,0.05723 -0.14184,0.05723 -0.15603,0 -0.21986,-0.02576 -0.14184,-0.05723 z m 22.47517,-0.0024 c 0.0819,-0.03278 0.17979,-0.02875 0.2175,0.009 0.0377,0.03771 -0.0293,0.06453 -0.14893,0.0596 -0.1322,-0.0054 -0.15909,-0.03233 -0.0686,-0.06856 z m -21.21986,-0.113475 c 0.0819,-0.03278 0.17979,-0.02875 0.2175,0.009 0.0377,0.03771 -0.0293,0.06453 -0.14894,0.0596 -0.13219,-0.0054 -0.15908,-0.03233 -0.0686,-0.06856 z m 19.97164,0 c 0.0819,-0.03278 0.17979,-0.02875 0.21749,0.009 0.0377,0.03771 -0.0293,0.06453 -0.14893,0.0596 -0.1322,-0.0054 -0.15908,-0.03233 -0.0686,-0.06856 z m -18.55813,-0.114596 c 0.11041,-0.02877 0.2636,-0.02688 0.34043,0.0042 0.0768,0.03108 -0.0135,0.05462 -0.20074,0.05231 -0.18724,-0.0023 -0.2501,-0.02774 -0.13969,-0.05652 z m 17.07586,0.0035 c 0.078,-0.03148 0.20567,-0.03148 0.28369,0 0.078,0.03148 0.0142,0.05724 -0.14185,0.05724 -0.15603,0 -0.21986,-0.02576 -0.14184,-0.05724 z m -15.37373,-0.11696 c 0.11041,-0.02877 0.2636,-0.02688 0.34042,0.0042 0.0768,0.03109 -0.0135,0.05462 -0.20074,0.05231 -0.18723,-0.0023 -0.25009,-0.02774 -0.13968,-0.05652 z m 13.6716,0.0035 c 0.078,-0.03148 0.20567,-0.03148 0.28369,0 0.078,0.03148 0.0142,0.05724 -0.14185,0.05724 -0.15602,0 -0.21985,-0.02576 -0.14184,-0.05724 z m -11.28922,-0.11975 c 0.17249,-0.02608 0.42781,-0.02539 0.56738,0.0015 0.13956,0.02694 -0.002,0.04828 -0.31362,0.04742 -0.31206,-9.08e-4 -0.42625,-0.02289 -0.25376,-0.04897 z m 8.90757,0.0012 c 0.14115,-0.02714 0.34541,-0.02611 0.4539,0.0023 0.10848,0.0284 -0.007,0.05061 -0.25665,0.04935 -0.24964,-0.0013 -0.33841,-0.0245 -0.19725,-0.05164 z M 38.127662,28.099002 c 0,-0.02356 0.08936,-0.112925 0.198581,-0.198582 0.179979,-0.141148 0.183992,-0.137134 0.04284,0.04284 -0.14824,0.189021 -0.241425,0.249133 -0.241425,0.155738 z M 186.6522,27.943264 c -0.14114,-0.179978 -0.13714,-0.183992 0.0429,-0.04284 0.10922,0.08566 0.19858,0.175019 0.19858,0.198582 0,0.0934 -0.0932,0.03328 -0.24143,-0.155738 z M 38.921988,27.418151 c 0,-0.02356 0.08936,-0.112925 0.198582,-0.198582 0.179978,-0.141148 0.183992,-0.137134 0.04284,0.04284 -0.14824,0.189021 -0.241425,0.249132 -0.241425,0.155738 z M 39.716314,26.7373 c 0,-0.02356 0.08936,-0.112925 0.198582,-0.198582 0.179978,-0.141148 0.183992,-0.137135 0.04284,0.04284 -0.148241,0.189021 -0.241426,0.249132 -0.241426,0.155738 z M 185.06355,26.581562 c -0.14114,-0.179979 -0.13714,-0.183992 0.0428,-0.04284 0.18902,0.148241 0.24914,0.241425 0.15574,0.241425 -0.0236,0 -0.11292,-0.08936 -0.19858,-0.198581 z m -1.36171,-1.134752 c -0.14114,-0.179978 -0.13713,-0.183992 0.0428,-0.04284 0.18902,0.148241 0.24914,0.241426 0.15574,0.241426 -0.0236,0 -0.11292,-0.08936 -0.19859,-0.198582 z M 127.75178,1.0572354 c 0.0819,-0.03278 0.17979,-0.028748 0.2175,0.00896 0.0377,0.037707 -0.0293,0.064527 -0.14894,0.059599 -0.1322,-0.00544 -0.15908,-0.032334 -0.0686,-0.068558 z M 98.815609,0.83028499 c 0.08191,-0.0327797 0.179788,-0.0287483 0.217494,0.008959 0.03771,0.0377069 -0.02931,0.0645266 -0.148936,0.0595994 -0.132193,-0.005445 -0.159081,-0.0323337 -0.06856,-0.0685579 z m 27.234041,0 c 0.0819,-0.0327797 0.17979,-0.0287483 0.2175,0.008959 0.0377,0.0377069 -0.0293,0.0645266 -0.14894,0.0595994 -0.13219,-0.005445 -0.15908,-0.0323337 -0.0686,-0.0685579 z M 125.02838,0.7168098 c 0.0819,-0.0327796 0.17979,-0.0287483 0.21749,0.008959 0.0377,0.0377069 -0.0293,0.0645266 -0.14893,0.0595994 -0.1322,-0.005445 -0.15908,-0.0323336 -0.0686,-0.0685579 z M 124.0071,0.60333462 c 0.0819,-0.0327797 0.17979,-0.0287483 0.2175,0.008959 0.0377,0.0377069 -0.0293,0.0645266 -0.14894,0.0595994 -0.1322,-0.005445 -0.15908,-0.0323336 -0.0686,-0.0685579 z M 101.98582,0.4922235 c 0.078,-0.0314794 0.20568,-0.0314794 0.28369,0 0.078,0.0314794 0.0142,0.0572353 -0.14184,0.0572353 -0.15603,0 -0.21986,-0.0257559 -0.14185,-0.0572353 z m 20.77305,-0.002364 c 0.0819,-0.0327796 0.17979,-0.0287483 0.2175,0.008959 0.0377,0.0377069 -0.0293,0.0645266 -0.14894,0.0595994 -0.13219,-0.005445 -0.15908,-0.0323336 -0.0686,-0.0685579 z M 103.34752,0.37874831 c 0.078,-0.0314794 0.20568,-0.0314794 0.28369,0 0.078,0.0314794 0.0142,0.0572353 -0.14184,0.0572353 -0.15603,0 -0.21986,-0.0257559 -0.14185,-0.0572353 z m 18.16313,-0.002364 c 0.0819,-0.0327796 0.17979,-0.0287483 0.21749,0.008959 0.0377,0.0377069 -0.0293,0.0645266 -0.14893,0.0595994 -0.1322,-0.005445 -0.15908,-0.0323337 -0.0686,-0.0685579 z M 104.76812,0.2617883 c 0.11041,-0.0287709 0.2636,-0.0268788 0.34043,0.004205 0.0768,0.0310835 -0.0135,0.0546233 -0.20074,0.0523107 -0.18724,-0.002313 -0.25009,-0.0277445 -0.13969,-0.0565157 z m 15.20567,0 c 0.11042,-0.0287709 0.26361,-0.0268788 0.34043,0.004205 0.0768,0.0310835 -0.0135,0.0546233 -0.20074,0.0523107 -0.18723,-0.002313 -0.25009,-0.0277445 -0.13969,-0.0565157 z M 106.6972,0.14831312 c 0.11041,-0.0287709 0.2636,-0.0268788 0.34043,0.004205 0.0768,0.0310835 -0.0135,0.0546233 -0.20074,0.0523107 -0.18724,-0.002313 -0.2501,-0.0277445 -0.13969,-0.0565157 z m 11.23189,4.1645e-4 c 0.10921,-0.0285421 0.28794,-0.0285421 0.39716,0 0.10922,0.0285421 0.0199,0.0518948 -0.19858,0.0518948 -0.21844,0 -0.3078,-0.0233527 -0.19858,-0.0518948 z M 109.6454,0.03081265 c 0.23404,-0.02448162 0.61702,-0.02448162 0.85106,0 0.23404,0.02448161 0.0426,0.04451201 -0.42553,0.04451201 -0.46809,0 -0.65958,-0.0200304 -0.42553,-0.04451201 z m 4.87943,0 c 0.23404,-0.02448162 0.61702,-0.02448162 0.85106,0 0.23405,0.02448161 0.0426,0.04451201 -0.42553,0.04451201 -0.46808,0 -0.65957,-0.0200304 -0.42553,-0.04451201 z"
         id="path4759" />
      <path
         style="fill:#6f4700;fill-opacity:1;stroke-width:0.113475"
         d="M 109.78724,224.95114 C 87.207657,224.29995 65.88566,217.24228 47.659577,204.38662 20.764052,185.41602 3.4914276,155.49443 0.51844102,122.72341 c -0.6098126,-6.72192 -0.60913428,-13.88465 0.00194,-20.48227 C 3.8920104,65.838487 24.598195,33.452262 56.187864,15.172488 78.798317,2.0886544 105.29843,-2.7134429 131.10018,1.59759 c 28.95207,4.8373946 54.97079,20.909283 72.27327,44.643548 11.12965,15.26685 18.29827,33.264715 20.67789,51.914896 0.65182,5.108566 0.88699,8.914486 0.88699,14.354606 0,8.25074 -0.74861,15.47426 -2.41667,23.31916 -6.12937,28.8264 -23.17138,53.94098 -47.71314,70.31417 -16.52259,11.02316 -36.07844,17.53996 -55.94326,18.64256 -2.32884,0.12926 -7.22511,0.21805 -9.07802,0.16461 z m 11.74468,-28.35024 c 15.17554,-1.2948 29.21057,-6.03507 42.54153,-14.36821 0.94107,-0.58825 1.71165,-1.10736 1.71241,-1.15356 10e-4,-0.0609 -5.08865,-8.54134 -5.28384,-8.80401 -0.0151,-0.0203 -1.04061,0.57256 -2.27892,1.31753 -11.24769,6.76661 -22.73481,10.36481 -35.61316,11.15539 -2.72113,0.16705 -9.32782,0.0694 -11.74469,-0.17359 -8.80042,-0.88477 -16.26736,-2.9356 -23.547275,-6.46735 -5.490653,-2.66373 -10.25198,-5.83004 -14.879129,-9.89473 -1.682736,-1.47819 -5.397234,-5.24603 -6.753666,-6.85066 -7.980091,-9.44026 -13.244212,-21.19286 -15.471968,-34.5425 -2.233519,-13.38417 -1.235543,-27.764899 2.780545,-40.067432 5.144696,-15.759806 15.257084,-28.652626 28.878588,-36.818848 7.406577,-4.440315 16.16929,-7.484224 25.304965,-8.790205 12.05987,-1.724006 24.63496,-0.71688 35.62214,2.852938 10.7629,3.496951 19.66012,9.157866 27.06249,17.218679 8.68748,9.460226 13.2046,19.372331 14.61136,32.062259 0.26008,2.346119 0.29833,10.416929 0.0602,12.709219 -0.89976,8.66237 -3.09366,15.30884 -7.01041,21.23824 -1.3755,2.08232 -2.59008,3.56273 -4.46436,5.44146 -3.23466,3.24233 -6.7184,5.60364 -10.87269,7.36957 -1.5714,0.66799 -4.84579,1.80889 -5.1915,1.80889 -0.15313,0 -0.17187,-3.79146 -0.17187,-34.78074 V 72.282492 l -10.29787,0.02897 -10.29787,0.02897 -0.0294,5.779424 -0.0294,5.779425 -0.34536,-0.544577 c -1.3195,-2.080639 -3.99112,-5.010131 -6.09473,-6.683023 -3.47603,-2.764307 -7.68891,-4.718764 -12.2449,-5.680704 -6.41804,-1.355088 -14.70987,-0.806296 -21.370868,1.414424 -4.994484,1.665117 -9.131897,4.22764 -12.888265,7.982403 -6.530857,6.52806 -10.047104,14.802851 -11.130538,26.193506 -0.257143,2.70346 -0.257143,9.15521 0,11.85866 0.65072,6.84133 2.101705,12.2687 4.618762,17.27635 4.854673,9.65829 13.293373,16.06182 23.997009,18.20961 6.31805,1.26779 12.6436,1.24746 17.87234,-0.0574 7.13902,-1.78161 13.14952,-5.97822 17.03766,-11.89588 l 0.54921,-0.8359 0.0292,6.85008 0.0293,6.85008 1.58865,0.035 c 2.05817,0.0453 7.09514,-0.15632 9.47861,-0.37949 14.2215,-1.33158 25.55194,-6.23273 33.89618,-14.6623 7.7094,-7.78826 12.30271,-17.97391 13.75276,-30.49675 0.38065,-3.28736 0.49467,-5.42349 0.49365,-9.24823 -0.001,-3.83556 -0.11588,-5.987886 -0.49305,-9.239951 -1.80766,-15.586109 -8.3974,-28.992842 -19.63736,-39.951876 -8.70484,-8.487273 -18.02722,-14.236668 -29.03689,-17.90792 -7.76278,-2.588554 -15.32705,-3.975313 -24.55159,-4.501052 -2.60368,-0.148392 -9.50575,-0.148709 -12.21437,-5.6e-4 -17.14417,0.937708 -31.296687,5.306947 -43.612511,13.464283 -9.033475,5.983285 -16.992598,13.98067 -22.793456,22.903036 -3.691075,5.677285 -6.649298,11.778049 -8.863684,18.279638 -1.549883,4.550569 -2.64056,8.912448 -3.430741,13.720364 -1.466311,8.921868 -1.642563,18.783228 -0.498925,27.914888 1.815623,14.4973 7.065326,27.92692 15.236978,38.97873 4.589309,6.20684 10.555977,12.21267 16.756665,16.86661 9.652822,7.24495 20.398331,11.98026 32.789829,14.44976 4.568731,0.9105 9.331065,1.46874 14.926485,1.74971 1.9343,0.0971 9.54493,-0.0416 11.51773,-0.20987 z m -8.54752,-53.85548 c -2.04677,-0.23787 -3.73004,-0.73024 -5.58014,-1.63223 -1.68537,-0.82168 -3.03758,-1.80367 -4.54077,-3.29758 -4.543631,-4.51559 -7.177289,-10.95412 -8.07606,-19.74365 -0.232566,-2.27439 -0.262662,-8.38238 -0.05228,-10.61096 0.61983,-6.56595 2.196806,-11.847509 4.750702,-15.910907 3.162318,-5.03144 7.109368,-7.958596 12.087168,-8.963913 1.69855,-0.34304 5.40429,-0.365601 7.17876,-0.04371 4.66332,0.845945 8.41883,3.109817 11.51079,6.938846 2.8062,3.475153 4.76349,8.217906 5.50003,13.327204 0.3772,2.61667 0.42794,4.07369 0.37551,10.78014 -0.0554,7.0855 -0.0966,7.71231 -0.70455,10.72506 -1.95713,9.6987 -7.86114,16.44564 -15.83072,18.09087 -2.07953,0.42931 -4.69721,0.5641 -6.61844,0.34082 z"
         id="path4757" />
    </g>
  </g>
</svg>
