<?xml version="1.0" encoding="UTF-8" standalone="no"?>
<!-- Created with Inkscape (http://www.inkscape.org/) -->

<svg
   version="1.1"
   id="svg2"
   width="666.27844"
   height="663.8866"
   viewBox="0 0 666.27844 663.88659"
   xmlns="http://www.w3.org/2000/svg"
   xmlns:svg="http://www.w3.org/2000/svg">
  <defs
     id="defs6" />
  <g
     id="g8"
     transform="translate(-2.3647048,-22.371089)">
    <g
       id="g847"
       transform="translate(0.20290976,-125.61248)"
       style="fill:#0866ff;fill-opacity:1">
      <path
         style="fill:#0866ff;fill-opacity:1;stroke-width:0.32"
         d="m 252.95818,546.24 c 0,-60.984 0.0368,-85.932 0.0818,-55.44 0.045,30.492 0.045,80.388 0,110.88 -0.045,30.492 -0.0818,5.544 -0.0818,-55.44 z M 555.84,581.95917 c 0,-0.0664 0.252,-0.31843 0.56,-0.56 0.50755,-0.39802 0.51885,-0.38672 0.12083,0.12083 -0.41805,0.53302 -0.68083,0.70256 -0.68083,0.43917 z m 3.52,-3.2 c 0,-0.0664 0.252,-0.31843 0.56,-0.56 0.50755,-0.39802 0.51885,-0.38672 0.12083,0.12083 -0.41805,0.53302 -0.68083,0.70256 -0.68083,0.43917 z M 103.33578,574.8 102.56,573.92 l 0.88,0.77578 c 0.82249,0.72508 1.02675,0.98422 0.77578,0.98422 -0.0573,0 -0.45332,-0.396 -0.88,-0.88 z M 566.4,572 c 0.95597,-0.968 1.81014,-1.76 1.89814,-1.76 0.088,0 -0.62217,0.792 -1.57814,1.76 -0.95597,0.968 -1.81014,1.76 -1.89814,1.76 -0.088,0 0.62217,-0.792 1.57814,-1.76 z m 5.44,-5.44 c 0.95597,-0.968 1.81014,-1.76 1.89814,-1.76 0.088,0 -0.62217,0.792 -1.57814,1.76 -0.95597,0.968 -1.81014,1.76 -1.89814,1.76 -0.088,0 0.62217,-0.792 1.57814,-1.76 z M 91.815779,563.28 91.04,562.4 l 0.88,0.77578 c 0.822493,0.72508 1.026749,0.98422 0.775779,0.98422 -0.05732,0 -0.453318,-0.396 -0.88,-0.88 z M 577.92,560.19917 c 0,-0.0664 0.252,-0.31843 0.56,-0.56 0.50755,-0.39802 0.51885,-0.38672 0.12083,0.12083 -0.41805,0.53302 -0.68083,0.70256 -0.68083,0.43917 z M 87.319181,558.48 c -0.398039,-0.50755 -0.38672,-0.51885 0.120819,-0.12083 0.53304,0.41805 0.702554,0.68083 0.439181,0.68083 -0.06645,0 -0.318448,-0.252 -0.56,-0.56 z M 665.30525,365.25334 c 0.0154,-0.3728 0.0912,-0.4486 0.19334,-0.19334 0.0924,0.23101 0.0811,0.50701 -0.0253,0.61334 -0.10633,0.10634 -0.18198,-0.0827 -0.16809,-0.42 z m 0.32,-3.52 c 0.0154,-0.3728 0.0912,-0.4486 0.19334,-0.19334 0.0924,0.23101 0.0811,0.50701 -0.0253,0.61334 -0.10633,0.10634 -0.18198,-0.0827 -0.16809,-0.42 z m -664.63998683,-2.88 c 0.0153548,-0.3728 0.0911809,-0.4486 0.19333333,-0.19334 0.092439,0.23101 0.08107,0.50701 -0.025263,0.61334 -0.1063333,0.10634 -0.18196489,-0.0827 -0.16807033,-0.42 z m 664.95998683,-1.28 c 0.0154,-0.3728 0.0912,-0.4486 0.19334,-0.19334 0.0924,0.23101 0.0811,0.50701 -0.0253,0.61334 -0.10633,0.10634 -0.18198,-0.0827 -0.16809,-0.42 z M 0.6905263,354.24 c 0,-0.44 0.0726316,-0.62 0.16140352,-0.4 0.0887719,0.22 0.0887719,0.58 0,0.8 -0.0887719,0.22 -0.16140352,0.04 -0.16140352,-0.4 z M 666.29053,352.32 c 0,-0.44 0.0726,-0.62 0.16141,-0.4 0.0888,0.22 0.0888,0.58 0,0.8 -0.0888,0.22 -0.16141,0.04 -0.16141,-0.4 z M 0.39424086,348.16 c 0,-0.616 0.0658545,-0.868 0.1463433,-0.56 0.0804888,0.308 0.0804888,0.812 0,1.12 -0.0804888,0.308 -0.1463433,0.056 -0.1463433,-0.56 z M 666.6407,345.12 c 0.004,-0.704 0.0691,-0.95434 0.14564,-0.55626 0.0765,0.39805 0.0736,0.97405 -0.006,1.28 -0.0801,0.30592 -0.14272,-0.0198 -0.13917,-0.72374 z M 0.12625836,333.6 c 4.992e-4,-2.464 0.0507311,-3.4297 0.11162632,-2.14598 0.0608952,1.28368 0.0604868,3.29968 -9.0784e-4,4.48 C 0.17558236,337.1143 0.125759,336.064 0.12625836,333.6 Z M 252.95202,309.6 c -3e-5,-13.2 0.0395,-18.64665 0.0878,-12.10366 0.0483,6.54299 0.0483,17.34299 5e-5,24.00001 -0.0483,6.65699 -0.0879,1.30365 -0.0879,-11.89635 z m 413.68868,12.16 c 0.004,-0.704 0.0691,-0.95434 0.14564,-0.55626 0.0765,0.39805 0.0736,0.97405 -0.006,1.28 -0.0801,0.30592 -0.14272,-0.0198 -0.13917,-0.72374 z M 0.39424086,319.04 c 0,-0.616 0.0658545,-0.868 0.1463433,-0.56 0.0804888,0.308 0.0804888,0.812 0,1.12 -0.0804888,0.308 -0.1463433,0.056 -0.1463433,-0.56 z M 666.29053,314.56 c 0,-0.44 0.0726,-0.62 0.16141,-0.4 0.0888,0.22 0.0888,0.58 0,0.8 -0.0888,0.22 -0.16141,0.04 -0.16141,-0.4 z M 0.6905263,312.96 c 0,-0.44 0.0726316,-0.62 0.16140352,-0.4 0.0887719,0.22 0.0887719,0.58 0,0.8 -0.0887719,0.22 -0.16140352,0.04 -0.16140352,-0.4 z M 665.94525,309.57333 c 0.0154,-0.37278 0.0912,-0.4486 0.19334,-0.19333 0.0924,0.231 0.0811,0.507 -0.0253,0.61333 -0.10633,0.10634 -0.18198,-0.0827 -0.16809,-0.42 z m -664.95998683,-1.6 c 0.0153548,-0.37278 0.0911809,-0.4486 0.19333333,-0.19333 0.092439,0.231 0.08107,0.507 -0.025263,0.61333 -0.1063333,0.10634 -0.18196489,-0.0827 -0.16807033,-0.42 z m 664.63998683,-2.56 c 0.0154,-0.37278 0.0912,-0.4486 0.19334,-0.19333 0.0924,0.231 0.0811,0.507 -0.0253,0.61333 -0.10633,0.10634 -0.18198,-0.0827 -0.16809,-0.42 z m -664.3199868,-1.28 c 0.015355,-0.37278 0.091181,-0.4486 0.1933333,-0.19333 0.092439,0.231 0.08107,0.507 -0.025263,0.61333 -0.1063333,0.10634 -0.1819649,-0.0827 -0.1680703,-0.42 z M 374.13053,287.68 c 0,-0.44 0.0726,-0.62 0.16141,-0.4 0.0888,0.22 0.0888,0.58 0,0.8 -0.0888,0.22 -0.16141,0.04 -0.16141,-0.4 z m 0.29472,-4.66667 c 0.0154,-0.37278 0.0912,-0.4486 0.19334,-0.19333 0.0925,0.231 0.0811,0.507 -0.0253,0.61333 -0.10633,0.10634 -0.18198,-0.0827 -0.16809,-0.42 z M 253.18238,275.04 c 0.007,-0.528 0.0782,-0.70526 0.15938,-0.39391 0.0811,0.31135 0.0758,0.74335 -0.0119,0.96 -0.0876,0.21665 -0.15403,-0.0381 -0.14751,-0.56609 z m 0.30814,-6.24 c 0,-0.44 0.0726,-0.62 0.16141,-0.4 0.0888,0.22 0.0888,0.58 0,0.8 -0.0888,0.22 -0.16141,0.04 -0.16141,-0.4 z m 0.29474,-4.66667 c 0.0154,-0.37278 0.0912,-0.4486 0.19334,-0.19333 0.0924,0.231 0.0811,0.507 -0.0252,0.61333 -0.10634,0.10634 -0.18197,-0.0827 -0.16807,-0.42 z M 482.82,223.7814 c 0.23101,-0.0924 0.50701,-0.0811 0.61334,0.0252 0.10634,0.10634 -0.0827,0.18197 -0.42,0.16807 -0.3728,-0.0154 -0.4486,-0.0912 -0.19334,-0.19333 z m -47.04,-0.32 c 0.23101,-0.0924 0.50701,-0.0811 0.61334,0.0252 0.10634,0.10634 -0.0827,0.18197 -0.42,0.16807 -0.3728,-0.0154 -0.4486,-0.0912 -0.19334,-0.19333 z m 40.78608,-0.003 c 0.31136,-0.0811 0.74336,-0.0758 0.96,0.0119 0.21667,0.0876 -0.0381,0.15404 -0.56608,0.14751 -0.528,-0.007 -0.70525,-0.0782 -0.39392,-0.15937 z M 441.04,223.13938 c 0.308,-0.0805 0.812,-0.0805 1.12,0 0.308,0.0805 0.056,0.14634 -0.56,0.14634 -0.616,0 -0.868,-0.0659 -0.56,-0.14634 z m 24.8,-0.0109 c 0.572,-0.071 1.508,-0.071 2.08,0 0.572,0.071 0.104,0.12907 -1.04,0.12907 -1.144,0 -1.612,-0.0581 -1.04,-0.12907 z M 393.22,124.2614 c 0.23101,-0.0924 0.50701,-0.0811 0.61334,0.0252 0.10634,0.10634 -0.0827,0.18197 -0.42,0.16807 -0.3728,-0.0154 -0.4486,-0.0912 -0.19334,-0.19333 z m 40.96,0 c 0.23101,-0.0924 0.50701,-0.0811 0.61334,0.0252 0.10634,0.10634 -0.0827,0.18197 -0.42,0.16807 -0.3728,-0.0154 -0.4486,-0.0912 -0.19334,-0.19333 z m -35.86,-0.31333 c 0.22,-0.0888 0.58,-0.0888 0.8,0 0.22,0.0888 0.04,0.16141 -0.4,0.16141 -0.44,0 -0.62,-0.0726 -0.4,-0.16141 z m 30.72,0 c 0.22,-0.0888 0.58,-0.0888 0.8,0 0.22,0.0888 0.04,0.16141 -0.4,0.16141 -0.44,0 -0.62,-0.0726 -0.4,-0.16141 z m -22.55562,-0.3377 c 0.48644,-0.0735 1.20644,-0.0716 1.6,0.004 0.3936,0.076 -0.004,0.13613 -0.88438,0.13373 -0.88,-0.003 -1.20202,-0.0645 -0.71562,-0.1381 z m 14.87562,0.004 c 0.396,-0.0763 1.044,-0.0763 1.44,0 0.396,0.0763 0.072,0.13868 -0.72,0.13868 -0.792,0 -1.116,-0.0624 -0.72,-0.13868 z M 579.47917,108.56 c -0.39802,-0.50754 -0.38672,-0.51886 0.12083,-0.12082 0.53302,0.41804 0.70256,0.68082 0.43917,0.68082 -0.0664,0 -0.31843,-0.252 -0.56,-0.56 z M 89.76,105.92 c 0.318557,-0.352 0.651194,-0.64 0.739194,-0.64 0.088,0 -0.100637,0.288 -0.419194,0.64 -0.318557,0.352 -0.651194,0.64 -0.739194,0.64 -0.088,0 0.100637,-0.288 0.419194,-0.64 z m 485.4096,-2 -0.6096,-0.72 0.72,0.6096 c 0.67661,0.57287 0.86566,0.8304 0.6096,0.8304 -0.0607,0 -0.38474,-0.324 -0.72,-0.72 z M 562.85578,91.6 562.08,90.72 l 0.88,0.775779 c 0.484,0.426682 0.88,0.822682 0.88,0.88 0,0.25097 -0.25914,0.04671 -0.98422,-0.775779 z M 105.76,89.92 c 0.31856,-0.352 0.65119,-0.64 0.73919,-0.64 0.088,0 -0.10063,0.288 -0.41919,0.64 -0.31856,0.352 -0.65119,0.64 -0.73919,0.64 -0.088,0 0.10063,-0.288 0.41919,-0.64 z M 303.94,1.3814035 c 0.231,-0.092439 0.507,-0.08107 0.61333,0.025263 0.10634,0.1063333 -0.0827,0.1819649 -0.42,0.1680701 -0.37278,-0.015355 -0.4486,-0.091181 -0.19333,-0.1933331 z m 3.84,-0.32 c 0.231,-0.0924386 0.507,-0.0810702 0.61333,0.025263 0.10634,0.1063333 -0.0827,0.1819649 -0.42,0.1680701 -0.37278,-0.015355 -0.4486,-0.091181 -0.19333,-0.1933331 z m 50.88,0 c 0.23101,-0.0924386 0.50701,-0.0810702 0.61334,0.025263 0.10634,0.1063333 -0.0827,0.1819649 -0.42,0.1680701 -0.3728,-0.015355 -0.4486,-0.091181 -0.19334,-0.1933331 z m -46.1,-0.31333332 c 0.22,-0.0887719 0.58,-0.0887719 0.8,0 0.22,0.0887719 0.04,0.16140352 -0.4,0.16140352 -0.44,0 -0.62,-0.0726316 -0.4,-0.16140352 z m 41.28,0 c 0.22,-0.0887719 0.58,-0.0887719 0.8,0 0.22,0.0887719 0.04,0.16140352 -0.4,0.16140352 -0.44,0 -0.62,-0.0726316 -0.4,-0.16140352 z M 318.48,0.41941584 c 0.308,-0.0804888 0.812,-0.0804888 1.12,0 0.308,0.0804888 0.056,0.1463433 -0.56,0.1463433 -0.616,0 -0.868,-0.0658545 -0.56,-0.1463433 z m 29.12,0 c 0.308,-0.0804888 0.812,-0.0804888 1.12,0 0.308,0.0804888 0.056,0.1463433 -0.56,0.1463433 -0.616,0 -0.868,-0.0658545 -0.56,-0.1463433 z m -16.33402,-0.3363928 c 1.18032,-0.06139447 3.19632,-0.06180294 4.48,-9.0784e-4 1.28372,0.06089523 0.31802,0.11112707 -2.14598,0.11162631 -2.464,4.992e-4 -3.5143,-0.0493241 -2.33402,-0.11071847 z"
         id="path855" />
      <path
         style="fill:#0866ff;fill-opacity:1;stroke-width:0.32"
         d="m 107.47918,578.64 c -0.39804,-0.50755 -0.38672,-0.51885 0.12082,-0.12083 0.53304,0.41805 0.70255,0.68083 0.43918,0.68083 -0.0665,0 -0.31845,-0.252 -0.56,-0.56 z M 560.8,577.28 c 0.31856,-0.352 0.6512,-0.64 0.7392,-0.64 0.088,0 -0.10064,0.288 -0.4192,0.64 -0.31856,0.352 -0.6512,0.64 -0.7392,0.64 -0.088,0 0.10064,-0.288 0.4192,-0.64 z m -459.37723,-4.4 -1.10277,-1.2 1.2,1.10278 c 0.66,0.60653 1.2,1.14653 1.2,1.2 0,0.24436 -0.27079,0.0141 -1.29723,-1.10278 z M 568.32,570.13987 c 0,-0.0551 0.468,-0.52307 1.04,-1.04 l 1.04,-0.93987 -0.93987,1.04 c -0.8761,0.96944 -1.14013,1.1871 -1.14013,0.93987 z M 93.904944,565.36 92.64,564 94,565.26493 c 0.748,0.69574 1.36,1.30774 1.36,1.36 0,0.24211 -0.278672,-1.3e-4 -1.455056,-1.26493 z M 576.96,561.15917 c 0,-0.0664 0.252,-0.31843 0.56,-0.56 0.50755,-0.39802 0.51885,-0.38672 0.12083,0.12083 -0.41805,0.53302 -0.68083,0.70256 -0.68083,0.43917 z M 88.279181,559.44 C 87.881142,558.93245 87.892461,558.92115 88.4,559.31917 88.93304,559.73722 89.102554,560 88.839181,560 c -0.06645,0 -0.318448,-0.252 -0.56,-0.56 z M 580.48,557.31917 c 0,-0.0664 0.252,-0.31843 0.56,-0.56 0.50755,-0.39802 0.51885,-0.38672 0.12083,0.12083 -0.41805,0.53302 -0.68083,0.70256 -0.68083,0.43917 z M 291.04,165.44 c 0.31856,-0.352 0.65119,-0.64 0.73919,-0.64 0.088,0 -0.10063,0.288 -0.41919,0.64 -0.31856,0.352 -0.65119,0.64 -0.73919,0.64 -0.088,0 0.10063,-0.288 0.41919,-0.64 z m 4.32,-4.32 c 0.41336,-0.44 0.82356,-0.8 0.91156,-0.8 0.088,0 -0.1782,0.36 -0.59156,0.8 -0.41336,0.44 -0.82356,0.8 -0.91156,0.8 -0.088,0 0.1782,-0.36 0.59156,-0.8 z M 91.04,104.64 c 0.318557,-0.352 0.651194,-0.64 0.739194,-0.64 0.088,0 -0.100637,0.288 -0.419194,0.64 -0.318557,0.352 -0.651194,0.64 -0.739194,0.64 -0.088,0 0.100637,-0.288 0.419194,-0.64 z m 482.38278,-2.48 -1.10278,-1.2 1.2,1.10277 c 1.11693,1.02644 1.34714,1.29723 1.10278,1.29723 -0.0535,0 -0.59347,-0.54 -1.2,-1.2 z m -8.80291,-8.8 -0.93987,-1.04 1.04,0.939869 c 0.96944,0.876089 1.1871,1.140131 0.93987,1.140131 -0.0551,0 -0.52307,-0.468 -1.04,-1.04 z M 104.48,91.2 c 0.31856,-0.352 0.65119,-0.64 0.73919,-0.64 0.088,0 -0.10063,0.288 -0.41919,0.64 -0.31856,0.352 -0.65119,0.64 -0.73919,0.64 -0.088,0 0.10063,-0.288 0.41919,-0.64 z m 454.51917,-3.12 c -0.39802,-0.507539 -0.38672,-0.518858 0.12083,-0.120819 0.53302,0.418038 0.70256,0.680819 0.43917,0.680819 -0.0664,0 -0.31843,-0.252 -0.56,-0.56 z"
         id="path853" />
      <path
         style="fill:#0866ff;fill-opacity:1;stroke-width:0.32"
         d="m 106.3696,577.52 -0.6096,-0.72 0.72,0.6096 c 0.396,0.33526 0.72,0.65926 0.72,0.72 0,0.25606 -0.25753,0.067 -0.8304,-0.6096 z M 562.08,576 c 0.31856,-0.352 0.6512,-0.64 0.7392,-0.64 0.088,0 -0.10064,0.288 -0.4192,0.64 -0.31856,0.352 -0.6512,0.64 -0.7392,0.64 -0.088,0 0.10064,-0.288 0.4192,-0.64 z M 97.752493,569.2 95.2,566.56 l 2.64,2.55248 c 1.452,1.40387 2.64,2.59187 2.64,2.64 0,0.23341 -0.35683,-0.10054 -2.727507,-2.55248 z M 576,562.08 c 0.41334,-0.44 0.82355,-0.8 0.91155,-0.8 0.088,0 -0.17821,0.36 -0.59155,0.8 -0.41334,0.44 -0.82355,0.8 -0.91155,0.8 -0.088,0 0.17821,-0.36 0.59155,-0.8 z M 89.239181,560.4 c -0.398039,-0.50755 -0.38672,-0.51885 0.120819,-0.12083 0.53304,0.41805 0.702554,0.68083 0.439181,0.68083 -0.06645,0 -0.318448,-0.252 -0.56,-0.56 z m -3.52,-3.84 c -0.398039,-0.50755 -0.38672,-0.51885 0.120819,-0.12083 0.308,0.24157 0.56,0.49357 0.56,0.56 0,0.26339 -0.262781,0.0938 -0.680819,-0.43917 z M 184.15613,384.48 c 0,-28.16 0.0377,-39.63264 0.0839,-25.49478 0.0461,14.13785 0.0461,37.17785 -1e-5,51.2 -0.0461,14.02214 -0.0839,2.45478 -0.0838,-25.70522 z m 481.14912,-20.18666 c 0.0154,-0.3728 0.0912,-0.4486 0.19334,-0.19334 0.0924,0.23101 0.0811,0.50701 -0.0253,0.61334 -0.10633,0.10634 -0.18198,-0.0827 -0.16809,-0.42 z m 0.32,-3.84 c 0.0154,-0.3728 0.0912,-0.4486 0.19334,-0.19334 0.0924,0.23101 0.0811,0.50701 -0.0253,0.61334 -0.10633,0.10634 -0.18198,-0.0827 -0.16809,-0.42 z m -664.63998683,-2.56 c 0.0153548,-0.3728 0.0911809,-0.4486 0.19333333,-0.19334 0.092439,0.23101 0.08107,0.50701 -0.025263,0.61334 -0.1063333,0.10634 -0.18196489,-0.0827 -0.16807033,-0.42 z m 664.95998683,-1.6 c 0.0154,-0.3728 0.0912,-0.4486 0.19334,-0.19334 0.0924,0.23101 0.0811,0.50701 -0.0253,0.61334 -0.10633,0.10634 -0.18198,-0.0827 -0.16809,-0.42 z M 0.6905263,352.96 c 0,-0.44 0.0726316,-0.62 0.16140352,-0.4 0.0887719,0.22 0.0887719,0.58 0,0.8 -0.0887719,0.22 -0.16140352,0.04 -0.16140352,-0.4 z M 666.30237,350.88 c 0.006,-0.528 0.0782,-0.70525 0.15939,-0.39392 0.0811,0.31136 0.0758,0.74336 -0.0118,0.96 -0.0877,0.21667 -0.15402,-0.0381 -0.14752,-0.56608 z M 0.39424086,345.92 c 0,-0.616 0.0658545,-0.868 0.1463433,-0.56 0.0804888,0.308 0.0804888,0.812 0,1.12 -0.0804888,0.308 -0.1463433,0.056 -0.1463433,-0.56 z M 666.65152,342.56 c 0.003,-0.88 0.0645,-1.20202 0.13811,-0.71562 0.0735,0.48644 0.0716,1.20644 -0.004,1.6 -0.0759,0.3936 -0.13613,-0.004 -0.13373,-0.88438 z m 0,-17.92 c 0.003,-0.88 0.0645,-1.20202 0.13811,-0.71562 0.0735,0.48644 0.0716,1.20644 -0.004,1.6 -0.0759,0.3936 -0.13613,-0.004 -0.13373,-0.88438 z M 0.40069869,321.12 c 0.003552,-0.704 0.0690829,-0.95434 0.1456248,-0.55626 0.0765418,0.39805 0.0736358,0.97405 -0.006458,1.28 -0.0800936,0.30592 -0.14271879,-0.0198 -0.1391668,-0.72374 z M 666.30237,316.32 c 0.006,-0.528 0.0782,-0.70526 0.15939,-0.39391 0.0811,0.31135 0.0758,0.74335 -0.0118,0.96 -0.0877,0.21665 -0.15402,-0.0381 -0.14752,-0.56609 z M 0.6905263,314.24 c 0,-0.44 0.0726316,-0.62 0.16140352,-0.4 0.0887719,0.22 0.0887719,0.58 0,0.8 -0.0887719,0.22 -0.16140352,0.04 -0.16140352,-0.4 z M 665.94525,310.85333 c 0.0154,-0.37278 0.0912,-0.4486 0.19334,-0.19333 0.0924,0.231 0.0811,0.507 -0.0253,0.61333 -0.10633,0.10634 -0.18198,-0.0827 -0.16809,-0.42 z m -664.95998683,-1.6 c 0.0153548,-0.37278 0.0911809,-0.4486 0.19333333,-0.19333 0.092439,0.231 0.08107,0.507 -0.025263,0.61333 -0.1063333,0.10634 -0.18196489,-0.0827 -0.16807033,-0.42 z m 664.63998683,-2.88 c 0.0154,-0.37278 0.0912,-0.4486 0.19334,-0.19333 0.0924,0.231 0.0811,0.507 -0.0253,0.61333 -0.10633,0.10634 -0.18198,-0.0827 -0.16809,-0.42 z m -664.3199868,-1.28 c 0.015355,-0.37278 0.091181,-0.4486 0.1933333,-0.19333 0.092439,0.231 0.08107,0.507 -0.025263,0.61333 -0.1063333,0.10634 -0.1819649,-0.0827 -0.1680703,-0.42 z m 0.32,-3.52 c 0.015355,-0.37278 0.091181,-0.4486 0.1933333,-0.19333 0.092439,0.231 0.08107,0.507 -0.025263,0.61333 -0.1063333,0.10634 -0.1819649,-0.0827 -0.1680703,-0.42 z m 0.32,-3.2 c 0.015355,-0.37278 0.091181,-0.4486 0.1933333,-0.19333 0.092439,0.231 0.08107,0.507 -0.025263,0.61333 -0.1063333,0.10634 -0.1819649,-0.0827 -0.1680703,-0.42 z M 374.14237,289.12 c 0.006,-0.528 0.0782,-0.70526 0.15939,-0.39391 0.0811,0.31135 0.0758,0.74335 -0.0118,0.96 -0.0876,0.21665 -0.15402,-0.0381 -0.14752,-0.56609 z m -121.23478,-5.6 c 0,-1.32 0.0565,-1.86 0.12552,-1.2 0.069,0.66 0.069,1.74 0,2.4 -0.069,0.66 -0.12552,0.12 -0.12552,-1.2 z m 121.51766,0.45333 c 0.0154,-0.37278 0.0912,-0.4486 0.19334,-0.19333 0.0925,0.231 0.0811,0.507 -0.0253,0.61333 -0.10633,0.10634 -0.18198,-0.0827 -0.16809,-0.42 z M 253.18238,273.12 c 0.007,-0.528 0.0782,-0.70526 0.15938,-0.39391 0.0811,0.31135 0.0758,0.74335 -0.0119,0.96 -0.0876,0.21665 -0.15403,-0.0381 -0.14751,-0.56609 z m 0.30814,-5.6 c 0,-0.44 0.0726,-0.62 0.16141,-0.4 0.0888,0.22 0.0888,0.58 0,0.8 -0.0888,0.22 -0.16141,0.04 -0.16141,-0.4 z m 0.29474,-4.34667 c 0.0154,-0.37278 0.0912,-0.4486 0.19334,-0.19333 0.0924,0.231 0.0811,0.507 -0.0252,0.61333 -0.10634,0.10634 -0.18197,-0.0827 -0.16807,-0.42 z M 486.02,224.1014 c 0.23101,-0.0924 0.50701,-0.0811 0.61334,0.0252 0.10634,0.10634 -0.0827,0.18197 -0.42,0.16807 -0.3728,-0.0154 -0.4486,-0.0912 -0.19334,-0.19333 z m -4.48,-0.32 c 0.23101,-0.0924 0.50701,-0.0811 0.61334,0.0252 0.10634,0.10634 -0.0827,0.18197 -0.42,0.16807 -0.3728,-0.0154 -0.4486,-0.0912 -0.19334,-0.19333 z m -44.48,-0.32 c 0.23101,-0.0924 0.50701,-0.0811 0.61334,0.0252 0.10634,0.10634 -0.0827,0.18197 -0.42,0.16807 -0.3728,-0.0154 -0.4486,-0.0912 -0.19334,-0.19333 z m 37.58,-0.002 c 0.308,-0.0805 0.812,-0.0805 1.12,0 0.308,0.0805 0.056,0.14635 -0.56,0.14635 -0.616,0 -0.868,-0.0659 -0.56,-0.14635 z m -31.52,-0.32524 c 0.396,-0.0763 1.044,-0.0763 1.44,0 0.396,0.0763 0.072,0.13868 -0.72,0.13868 -0.792,0 -1.116,-0.0624 -0.72,-0.13868 z m 17.76966,-0.01 c 0.84132,-0.0661 2.13732,-0.0653 2.88,0.002 0.74269,0.0671 0.0543,0.12122 -1.52966,0.12024 -1.584,-9.6e-4 -2.19165,-0.0559 -1.35034,-0.12202 z M 289.6,166.91918 c 0,-0.0665 0.252,-0.31845 0.56,-0.56 0.50754,-0.39804 0.51886,-0.38672 0.12082,0.12082 -0.41804,0.53304 -0.68082,0.70255 -0.68082,0.43918 z m 6.72,-6.72 c 0,-0.0665 0.252,-0.31845 0.56,-0.56 0.50754,-0.39804 0.51886,-0.38672 0.12082,0.12082 -0.41804,0.53304 -0.68082,0.70255 -0.68082,0.43918 z M 443.14,124.9014 c 0.23101,-0.0924 0.50701,-0.0811 0.61334,0.0252 0.10634,0.10634 -0.0827,0.18197 -0.42,0.16807 -0.3728,-0.0154 -0.4486,-0.0912 -0.19334,-0.19333 z m -54.72,-0.32 c 0.23101,-0.0924 0.50701,-0.0811 0.61334,0.0252 0.10634,0.10634 -0.0827,0.18197 -0.42,0.16807 -0.3728,-0.0154 -0.4486,-0.0912 -0.19334,-0.19333 z m 3.84,-0.32 c 0.23101,-0.0924 0.50701,-0.0811 0.61334,0.0252 0.10634,0.10634 -0.0827,0.18197 -0.42,0.16807 -0.3728,-0.0154 -0.4486,-0.0912 -0.19334,-0.19333 z m 43.2,0 c 0.23101,-0.0924 0.50701,-0.0811 0.61334,0.0252 0.10634,0.10634 -0.0827,0.18197 -0.42,0.16807 -0.3728,-0.0154 -0.4486,-0.0912 -0.19334,-0.19333 z m -38.42,-0.31333 c 0.22,-0.0888 0.58,-0.0888 0.8,0 0.22,0.0888 0.04,0.16141 -0.4,0.16141 -0.44,0 -0.62,-0.0726 -0.4,-0.16141 z m 33.28,0 c 0.22,-0.0888 0.58,-0.0888 0.8,0 0.22,0.0888 0.04,0.16141 -0.4,0.16141 -0.44,0 -0.62,-0.0726 -0.4,-0.16141 z m -26.56,-0.3339 c 0.396,-0.0763 1.044,-0.0763 1.44,0 0.396,0.0763 0.072,0.13867 -0.72,0.13867 -0.792,0 -1.116,-0.0624 -0.72,-0.13867 z m 20,0.005 c 0.308,-0.0805 0.812,-0.0805 1.12,0 0.308,0.0805 0.056,0.14635 -0.56,0.14635 -0.616,0 -0.868,-0.0659 -0.56,-0.14635 z M 581.07917,110.48 c -0.39802,-0.50754 -0.38672,-0.51886 0.12083,-0.12082 0.53302,0.41804 0.70256,0.68082 0.43917,0.68082 -0.0664,0 -0.31843,-0.252 -0.56,-0.56 z M 87.36,108.67918 c 0,-0.0665 0.252,-0.31845 0.56,-0.56 0.507539,-0.39804 0.518858,-0.38672 0.120819,0.12082 C 87.622781,108.77304 87.36,108.94255 87.36,108.67918 Z M 577.7296,106.8 l -0.6096,-0.72 0.72,0.6096 c 0.67661,0.57287 0.86566,0.8304 0.6096,0.8304 -0.0607,0 -0.38474,-0.324 -0.72,-0.72 z M 91.84,103.89987 c 0,-0.0551 0.468,-0.52307 1.04,-1.04 l 1.04,-0.93987 -0.939869,1.04 C 92.104042,103.92943 91.84,104.14709 91.84,103.89987 Z M 568.95427,97.68 565.6,94.24 l 3.44,3.354282 c 1.892,1.844857 3.44,3.392858 3.44,3.439998 0,0.23111 -0.41018,-0.15913 -3.52573,-3.35428 z M 102.08,93.659869 c 0,-0.05507 0.468,-0.523072 1.04,-1.04 L 104.16,91.68 103.22013,92.72 C 102.34404,93.689427 102.08,93.907088 102.08,93.659869 Z M 560.1296,89.2 559.52,88.48 l 0.72,0.609597 c 0.67661,0.57287 0.86566,0.830403 0.6096,0.830403 -0.0607,0 -0.38474,-0.324 -0.72,-0.72 z M 107.84,88.199181 c 0,-0.06645 0.252,-0.318448 0.56,-0.56 0.50754,-0.398039 0.51886,-0.38672 0.12082,0.120819 -0.41804,0.53304 -0.68082,0.702554 -0.68082,0.439181 z M 298.18,2.0214035 c 0.231,-0.092439 0.507,-0.08107 0.61333,0.025263 0.10634,0.1063333 -0.0827,0.1819649 -0.42,0.1680701 -0.37278,-0.015355 -0.4486,-0.091181 -0.19333,-0.1933331 z m 3.2,-0.32 c 0.231,-0.092439 0.507,-0.08107 0.61333,0.025263 0.10634,0.1063333 -0.0827,0.1819649 -0.42,0.1680701 -0.37278,-0.015355 -0.4486,-0.091181 -0.19333,-0.1933331 z m 3.52,-0.32 c 0.231,-0.092439 0.507,-0.08107 0.61333,0.025263 0.10634,0.1063333 -0.0827,0.1819649 -0.42,0.1680701 -0.37278,-0.015355 -0.4486,-0.091181 -0.19333,-0.1933331 z m 4.16,-0.32 c 0.231,-0.0924386 0.507,-0.0810702 0.61333,0.025263 0.10634,0.1063333 -0.0827,0.1819649 -0.42,0.1680701 -0.37278,-0.015355 -0.4486,-0.091181 -0.19333,-0.1933331 z m 48.64,0 c 0.23101,-0.0924386 0.50701,-0.0810702 0.61334,0.025263 0.10634,0.1063333 -0.0827,0.1819649 -0.42,0.1680701 -0.3728,-0.015355 -0.4486,-0.091181 -0.19334,-0.1933331 z M 313.84,0.74807018 c 0.22,-0.0887719 0.58,-0.0887719 0.8,0 0.22,0.0887719 0.04,0.16140352 -0.4,0.16140352 -0.44,0 -0.62,-0.0726316 -0.4,-0.16140352 z m 38.72,0 c 0.22,-0.0887719 0.58,-0.0887719 0.8,0 0.22,0.0887719 0.04,0.16140352 -0.4,0.16140352 -0.44,0 -0.62,-0.0726316 -0.4,-0.16140352 z M 320.56374,0.41367651 c 0.39805,-0.0765418 0.97405,-0.0736358 1.28,0.006458 0.30592,0.0800936 -0.0198,0.14271879 -0.72374,0.13916698 -0.704,-0.003552 -0.95434,-0.0690829 -0.55626,-0.14562498 z m 24.79626,0.005739 c 0.308,-0.0804888 0.812,-0.0804888 1.12,0 0.308,0.0804888 0.056,0.1463433 -0.56,0.1463433 -0.616,0 -0.868,-0.0658545 -0.56,-0.1463433 z"
         id="path851" />
      <path
         style="fill:#0866ff;fill-opacity:1;stroke-width:0.32"
         d="M 375.74991,697.44023 V 583.01021 h 45.08438 45.08439 l 0.19107,-1.04 c 11.43939,-62.27142 18.44016,-100.5199 18.44016,-100.74752 0,-0.17549 -21.75706,-0.29248 -54.4,-0.29248 h -54.4 l 0.005,-20.88 c 0.003,-11.484 0.14832,-23.04 0.32355,-25.68 2.42791,-36.5774 16.23955,-54.74088 46.48058,-61.12589 9.84739,-2.07915 21.80281,-2.8657 38.95091,-2.56259 11.30704,0.19986 22.66819,0.63626 26.48109,1.01717 l 2.00109,0.19991 -0.0811,-46.35546 -0.0811,-46.35547 -3.04,-0.73282 c -12.05968,-2.9071 -36.2575,-5.95857 -56.43549,-7.11678 -7.2831,-0.41805 -21.36486,-0.42108 -29.00451,-0.006 -42.76483,2.32217 -73.67827,12.34762 -98.06096,31.80184 -4.27158,3.40817 -12.48569,11.65522 -15.97227,16.03633 -18.29415,22.98777 -28.43818,52.15021 -31.72354,91.2 -0.85612,10.1758 -1.1171,20.89274 -1.1202,46 l -0.003,24.55976 h -34.4 -34.4 v 51.04 51.04 h 34.4 34.4 V 693.73632 804.4624 l -0.88,-0.21104 c -3.87784,-0.92992 -15.89208,-4.42685 -21.52,-6.26371 C 188.51947,783.77338 149.72,761.60531 114.78996,730.97981 107.72417,724.78477 95.143048,712.38019 88.527118,705.08557 40.151119,651.74672 10.781561,585.7297 3.610723,514.21021 2.384661,501.98189 2.155665,496.7217 2.161918,480.93021 2.168118,465.23967 2.36951,460.65423 3.608712,447.98638 8.825907,394.65315 26.875837,343.46195 56.29117,298.57426 c 25.111718,-38.32039 58.1424,-71.35107 96.46279,-96.46279 31.24945,-20.47806 65.81608,-35.57554 101.87595,-44.49581 19.67127,-4.86615 37.21572,-7.58597 59.52,-9.22704 7.35398,-0.54108 34.71344,-0.53972 42.24,0.002 26.07526,1.87711 48.98538,5.89651 72.27936,12.68083 47.55155,13.84932 90.59104,37.75977 128.68064,71.48815 5.77824,5.11663 22.17434,21.59498 27.43293,27.57051 36.09193,41.01275 61.08973,88.56941 73.98771,140.75678 12.01222,48.60346 12.85056,100.59452 2.41552,149.80322 -20.91539,98.63104 -86.40294,183.18694 -176.95616,228.48144 -33.49107,16.75213 -69.94451,27.84067 -106.8,32.48682 l -1.68,0.2118 z"
         id="path849" />
    </g>
    <path
       style="fill:#000000;stroke-width:0.32"
       id="path827"
       d="" />
  </g>
</svg>
