<?xml version="1.0" encoding="UTF-8" standalone="no"?>
<!-- Created with Inkscape (http://www.inkscape.org/) -->

<svg
   version="1.1"
   id="svg2"
   width="952.95312"
   height="1050.1448"
   viewBox="0 0 952.95312 1050.1448"
   xmlns="http://www.w3.org/2000/svg"
   xmlns:svg="http://www.w3.org/2000/svg">
  <defs
     id="defs6" />
  <g
     id="g8"
     transform="translate(-89.876343,-47.701429)">
    <g
       id="g827"
       transform="translate(-74.334177,-67.124049)"
       style="fill:#ff0044;fill-opacity:0.666667">
      <path
         style="fill:#ff0044;fill-opacity:0.666667;stroke-width:1.33333"
         d="M 205.23241,932.33333 202,928.66667 l 3.66667,3.23241 c 3.42705,3.02119 4.27812,4.10092 3.23241,4.10092 -0.23883,0 -1.88883,-1.65 -3.66667,-3.66667 z m 868.10089,1.82992 c 0,-0.27686 1.05,-1.32686 2.3334,-2.33333 2.1147,-1.65849 2.1619,-1.61133 0.5034,0.50341 -1.7418,2.221 -2.8368,2.92731 -2.8368,1.82992 z m 9.3334,-10.66666 c 0,-0.27687 1.05,-1.32687 2.3333,-2.33334 2.1147,-1.65849 2.1619,-1.61133 0.5034,0.50342 -1.7418,2.221 -2.8367,2.9273 -2.8367,1.82992 z m -917.2281,-69.6077 c 0.064,-1.55326 0.37992,-1.8692 0.80555,-0.80556 0.38516,0.9625 0.3378,2.11251 -0.1052,2.55556 -0.44307,0.44306 -0.75819,-0.34445 -0.7003,-1.75 z m -1.22808,-11.22222 c 0,-1.83334 0.30264,-2.58334 0.67252,-1.66667 0.36988,0.91667 0.36988,2.41667 0,3.33333 -0.36988,0.91667 -0.67252,0.16667 -0.67252,-1.66666 z m 952.04938,-2 c 0.027,-2.2 0.326,-2.93859 0.6641,-1.6413 0.338,1.2973 0.3158,3.0973 -0.05,4 -0.3652,0.90271 -0.6418,-0.1587 -0.6146,-2.3587 z m -501.84323,-6.91082 c 0.96249,-0.38516 2.1125,-0.3378 2.55556,0.1052 0.44305,0.44306 -0.34446,0.75819 -1.75,0.7003 -1.55327,-0.064 -1.8692,-0.37992 -0.80556,-0.80555 z M 661,833.78359 c 0.91667,-0.36988 2.41667,-0.36988 3.33333,0 0.91667,0.36988 0.16667,0.67252 -1.66666,0.67252 -1.83334,0 -2.58334,-0.30264 -1.66667,-0.67252 z m 113,-44.45026 c 3.61153,-3.66666 6.86643,-6.66666 7.23309,-6.66666 0.36667,0 -2.28822,3 -5.89976,6.66666 C 771.7218,793 768.46691,796 768.10024,796 c -0.36667,0 2.28823,-3 5.89976,-6.66667 z M 626.41667,747.08919 c 0.96249,-0.38516 2.1125,-0.3378 2.55556,0.1052 0.44305,0.44305 -0.34446,0.75818 -1.75,0.70029 -1.55327,-0.064 -1.8692,-0.37992 -0.80556,-0.80555 z m 24,0 c 0.96249,-0.38516 2.1125,-0.3378 2.55556,0.1052 0.44305,0.44305 -0.34446,0.75818 -1.75,0.70029 -1.55327,-0.064 -1.8692,-0.37992 -0.80556,-0.80555 z M 802.87719,728 c 0,-1.83333 0.30264,-2.58333 0.67252,-1.66667 0.36988,0.91667 0.36988,2.41667 0,3.33334 -0.36988,0.91666 -0.67252,0.16666 -0.67252,-1.66667 z m 0.12573,-16.66667 c 0.0148,-2.93333 0.28785,-3.97633 0.60677,-2.31778 0.31892,1.65854 0.30682,4.05854 -0.0269,5.33333 -0.33372,1.27479 -0.59467,-0.0823 -0.57987,-3.01555 z m -27.79627,-67.66666 -2.53998,-3 3,2.53998 c 1.65,1.39699 3,2.74699 3,3 0,1.067 -1.07306,0.27927 -3.46002,-2.53998 z M 527.82992,632.33333 c -1.65849,-2.11474 -1.61133,-2.1619 0.50341,-0.50341 2.221,1.74183 2.92731,2.83675 1.82992,2.83675 -0.27686,0 -1.32686,-1.05 -2.33333,-2.33334 z M 518.49659,623 c -1.6585,-2.11475 -1.61134,-2.16191 0.50341,-0.50341 2.221,1.74182 2.92731,2.83674 1.82992,2.83674 -0.27687,0 -1.32687,-1.05 -2.33333,-2.33333 z m -22.39132,-49.11111 c 0.064,-1.55326 0.37992,-1.8692 0.80554,-0.80556 0.38516,0.9625 0.3378,2.11251 -0.1052,2.55556 -0.44305,0.44306 -0.75818,-0.34445 -0.70029,-1.75 z m 250.5614,-13.07957 c 0,-0.28821 0.93116,-0.88133 2.06925,-1.31807 1.18656,-0.45532 1.72176,-0.2318 1.25464,0.52402 -0.78301,1.26694 -3.32389,1.87393 -3.32389,0.79405 z m -250.5614,-14.92043 c 0.064,-1.55326 0.37992,-1.8692 0.80554,-0.80556 0.38516,0.9625 0.3378,2.11251 -0.1052,2.55556 -0.44305,0.44306 -0.75818,-0.34445 -0.70029,-1.75 z m 116.5614,-3.22222 C 613.99399,541.2 615.37997,540 615.74664,540 c 0.36667,0 -0.41932,1.2 -1.74664,2.66667 -1.32732,1.46666 -2.71331,2.66666 -3.07997,2.66666 -0.36667,0 0.41932,-1.2 1.74664,-2.66666 z m 31,-11.54971 c 0.91666,-0.36988 2.41666,-0.36988 3.33333,0 0.91667,0.36988 0.16667,0.67252 -1.66667,0.67252 -1.83333,0 -2.58333,-0.30264 -1.66666,-0.67252 z m 22.66666,0 c 0.91667,-0.36988 2.41667,-0.36988 3.33334,0 0.91666,0.36988 0.16666,0.67252 -1.66667,0.67252 -1.83333,0 -2.58333,-0.30264 -1.66667,-0.67252 z m -149,-32.95371 c 0,-0.27686 1.05,-1.32686 2.33334,-2.33333 2.11474,-1.65849 2.1619,-1.61133 0.50341,0.50341 -1.74183,2.221 -2.83675,2.92731 -2.83675,1.82992 z m 109.08334,-51.07406 c 0.96249,-0.38516 2.1125,-0.3378 2.55556,0.1052 0.44305,0.44305 -0.34446,0.75818 -1.75,0.70029 -1.55327,-0.064 -1.8692,-0.37992 -0.80556,-0.80555 z m 52,0 c 0.96249,-0.38516 2.1125,-0.3378 2.55556,0.1052 0.44305,0.44305 -0.34446,0.75818 -1.75,0.70029 -1.55327,-0.064 -1.8692,-0.37992 -0.80556,-0.80555 z m 437.84323,-6.42252 c 0.027,-2.2 0.326,-2.93859 0.6641,-1.6413 0.338,1.2973 0.3158,3.0973 -0.05,4 -0.3652,0.90271 -0.6418,-0.1587 -0.6146,-2.3587 z m -951.99997,-1.33334 c 0.0272,-2.2 0.326,-2.93858 0.66406,-1.64129 0.33805,1.29729 0.31582,3.09729 -0.0493,4 -0.36524,0.90271 -0.64182,-0.15871 -0.61465,-2.35871 z m 1.17867,-12.1111 c 0.064,-1.55327 0.37992,-1.8692 0.80555,-0.80556 0.38516,0.96249 0.3378,2.1125 -0.1052,2.55556 -0.44307,0.44305 -0.75819,-0.34446 -0.7003,-1.75 z m 39.89473,-78.55556 c 1.72234,-1.83334 3.43151,-3.33334 3.79818,-3.33334 0.36666,0 -0.74251,1.5 -2.46484,3.33334 C 204.94433,350.5 203.23516,352 202.86849,352 c -0.36666,0 0.74251,-1.5 2.46484,-3.33333 z M 638.34888,115.05699 c 1.65855,-0.31893 4.05855,-0.30682 5.33333,0.0269 1.27479,0.33372 -0.0823,0.59466 -3.01554,0.57986 -2.93334,-0.0148 -3.97634,-0.28784 -2.31779,-0.60676 z"
         id="path833" />
      <path
         style="fill:#ff0044;fill-opacity:0.666667;stroke-width:1.33333"
         d="m 626.33333,1164.3924 c 1.65,-0.3179 4.35,-0.3179 6,0 1.65,0.3178 0.3,0.5778 -3,0.5778 -3.3,0 -4.65,-0.26 -3,-0.5778 z m 22.66667,0 c 1.65,-0.3179 4.35,-0.3179 6,0 1.65,0.3178 0.3,0.5778 -3,0.5778 -3.3,0 -4.65,-0.26 -3,-0.5778 z m 14.75,-1.3032 c 0.96249,-0.3852 2.11251,-0.3378 2.55556,0.1052 0.44305,0.443 -0.34445,0.7582 -1.75,0.7003 -1.55327,-0.064 -1.8692,-0.3799 -0.80556,-0.8056 z m 394.9167,-216.92595 c 0,-0.27686 1.05,-1.32686 2.3333,-2.33333 2.1147,-1.65849 2.1619,-1.61133 0.5034,0.50341 -1.7418,2.221 -2.8367,2.92731 -2.8367,1.82992 z m 6.6666,-5.24713 c 0,-0.22947 1.95,-2.17947 4.3334,-4.33333 L 1074,932.66667 1070.0839,937 c -3.6504,4.03928 -4.7506,4.9462 -4.7506,3.91612 z M 198.49659,924.33333 c -1.6585,-2.11474 -1.61134,-2.1619 0.50341,-0.50341 2.221,1.74183 2.92731,2.83675 1.82992,2.83675 -0.27687,0 -1.32687,-1.05 -2.33333,-2.33334 z m -31.72466,-65.1111 c 0.064,-1.55327 0.37992,-1.8692 0.80555,-0.80556 0.38516,0.96249 0.3378,2.1125 -0.1052,2.55556 -0.44307,0.44305 -0.75819,-0.34446 -0.70029,-1.75 z m 946.66667,-1.33334 c 0.064,-1.55326 0.3799,-1.8692 0.8055,-0.80556 0.3852,0.9625 0.3378,2.11251 -0.1052,2.55556 -0.443,0.44306 -0.7581,-0.34445 -0.7002,-1.75 z m -948,-8 c 0.064,-1.55326 0.37992,-1.8692 0.80555,-0.80556 0.38516,0.9625 0.3378,2.11251 -0.1052,2.55556 -0.44307,0.44306 -0.75819,-0.34445 -0.7003,-1.75 z m 949.3333,0 c 0.064,-1.55326 0.38,-1.8692 0.8056,-0.80556 0.3851,0.9625 0.3378,2.11251 -0.1052,2.55556 -0.4431,0.44306 -0.7582,-0.34445 -0.7003,-1.75 z M 164.64943,641.33333 c 0,-109.63333 0.1577,-154.48333 0.35044,-99.66666 0.19274,54.81666 0.19274,144.51666 0,199.33333 -0.19274,54.81667 -0.35044,9.96667 -0.35044,-99.66667 z m 951.99987,-0.66666 c 0,-108.53334 0.1578,-152.73628 0.3506,-98.22878 0.1928,54.50752 0.1928,143.30752 -10e-5,197.33334 -0.1928,54.02582 -0.3506,9.42877 -0.3505,-99.10456 z M 633.66667,835.01995 c 3.48333,-0.27467 9.18333,-0.27467 12.66666,0 3.48334,0.27466 0.63334,0.49938 -6.33333,0.49938 -6.96667,0 -9.81667,-0.22472 -6.33333,-0.49938 z m -23.25,-1.2641 c 0.96249,-0.38516 2.1125,-0.3378 2.55556,0.1052 0.44305,0.44306 -0.34446,0.75819 -1.75,0.7003 -1.55327,-0.064 -1.8692,-0.37992 -0.80556,-0.80555 z m -21.33334,-2.66666 c 0.9625,-0.38516 2.11251,-0.3378 2.55556,0.1052 0.44306,0.44305 -0.34445,0.75818 -1.75,0.70029 -1.55326,-0.064 -1.8692,-0.37992 -0.80556,-0.80555 z M 579.75,829.75585 c 0.96249,-0.38516 2.11251,-0.3378 2.55556,0.1052 0.44305,0.44306 -0.34445,0.75819 -1.75,0.7003 -1.55327,-0.064 -1.8692,-0.37992 -0.80556,-0.80555 z m 112,0 c 0.96249,-0.38516 2.11251,-0.3378 2.55556,0.1052 0.44305,0.44306 -0.34445,0.75819 -1.75,0.7003 -1.55327,-0.064 -1.8692,-0.37992 -0.80556,-0.80555 z m -118.66667,-1.33333 c 0.9625,-0.38516 2.11251,-0.3378 2.55556,0.1052 0.44306,0.44305 -0.34445,0.75819 -1.75,0.70029 -1.55326,-0.064 -1.8692,-0.37992 -0.80556,-0.80554 z m 125.33334,0 c 0.96249,-0.38516 2.1125,-0.3378 2.55556,0.1052 0.44305,0.44305 -0.34446,0.75819 -1.75,0.70029 -1.55327,-0.064 -1.8692,-0.37992 -0.80556,-0.80554 z M 764,799.49659 c 0,-0.27687 1.05,-1.32687 2.33333,-2.33334 2.11475,-1.65849 2.16191,-1.61133 0.50342,0.50342 -1.74183,2.221 -2.83675,2.9273 -2.83675,1.82992 z M 480.00493,784.67192 c -1.7196,-1.83044 -2.8742,-3.55137 -2.56574,-3.82428 0.30845,-0.27292 1.95645,1.22471 3.66222,3.32807 3.81732,4.70706 3.14518,5.01124 -1.09648,0.49621 z m 17.3284,-30.50867 c 0,-0.27686 1.05,-1.32686 2.33334,-2.33333 2.11474,-1.65849 2.1619,-1.61133 0.50341,0.50341 -1.74183,2.221 -2.83675,2.92731 -2.83675,1.82992 z M 634.36857,747.022 c 3.13606,-0.28165 7.93606,-0.27769 10.66667,0.009 2.73061,0.2865 0.16476,0.51695 -5.70191,0.51211 -5.86666,-0.005 -8.10081,-0.23925 -4.96476,-0.52092 z m -127.7019,-4.85875 c 0,-0.27686 1.05,-1.32686 2.33333,-2.33333 2.11475,-1.65849 2.16191,-1.61133 0.50341,0.50341 -1.74182,2.221 -2.83674,2.92731 -2.83674,1.82992 z m 178.66666,-5.33333 c 0,-0.27687 1.05,-1.32687 2.33334,-2.33333 2.11474,-1.6585 2.1619,-1.61134 0.50341,0.50341 -1.74183,2.221 -2.83675,2.92731 -2.83675,1.82992 z m 8.10527,-18.94103 c 0.064,-1.55326 0.37992,-1.8692 0.80555,-0.80556 0.38516,0.9625 0.3378,2.11251 -0.1052,2.55556 -0.44306,0.44306 -0.75819,-0.34445 -0.7003,-1.75 z m -161.41955,-7.77461 c 0.86348,-0.86348 1.76508,-0.86348 2.62856,0 0.8635,0.86349 0.41271,1.31429 -1.31428,1.31429 -1.72698,0 -2.17777,-0.4508 -1.31428,-1.31429 z m 270.75288,-5.55872 c 0.064,-1.55327 0.37992,-1.8692 0.80555,-0.80556 0.38516,0.96249 0.3378,2.11251 -0.1052,2.55556 -0.44305,0.44305 -0.75819,-0.34445 -0.70029,-1.75 z m -22.94201,-56.22223 c -1.65849,-2.11474 -1.61133,-2.1619 0.50341,-0.50341 2.221,1.74183 2.92731,2.83675 1.82992,2.83675 -0.27686,0 -1.32686,-1.05 -2.33333,-2.33334 z M 770.49659,639 c -1.6585,-2.11475 -1.61134,-2.16191 0.50341,-0.50341 2.221,1.74182 2.92731,2.83674 1.82992,2.83674 -0.27687,0 -1.32687,-1.05 -2.33333,-2.33333 z M 495.12375,560.66667 c 0.005,-5.86667 0.23925,-8.10082 0.52092,-4.96476 0.28165,3.13605 0.27769,7.93605 -0.009,10.66666 -0.28649,2.73062 -0.51694,0.16476 -0.5121,-5.7019 z m 111.64818,-2.77778 c 0.064,-1.55326 0.37992,-1.8692 0.80555,-0.80556 0.38516,0.9625 0.3378,2.11251 -0.1052,2.55556 -0.44305,0.44306 -0.75819,-0.34445 -0.70029,-1.75 z m 44.865,-26.8512 c 2.36698,-0.29454 6.56698,-0.29938 9.33334,-0.0107 2.76634,0.28864 0.82973,0.52962 -4.3036,0.53554 -5.13334,0.005 -7.39672,-0.23024 -5.02974,-0.52478 z m -53.22026,-79.9485 c 0.96249,-0.38516 2.1125,-0.3378 2.55556,0.1052 0.44305,0.44305 -0.34446,0.75818 -1.75,0.70029 -1.55327,-0.064 -1.8692,-0.37992 -0.80556,-0.80555 z m 112,0 c 0.96249,-0.38516 2.1125,-0.3378 2.55556,0.1052 0.44305,0.44305 -0.34446,0.75818 -1.75,0.70029 -1.55327,-0.064 -1.8692,-0.37992 -0.80556,-0.80555 z m -105.33334,-1.33334 c 0.9625,-0.38516 2.11251,-0.3378 2.55556,0.1052 0.44306,0.44306 -0.34445,0.75819 -1.75,0.7003 -1.55326,-0.064 -1.8692,-0.37992 -0.80556,-0.80555 z m 97.33334,0 c 0.96249,-0.38516 2.1125,-0.3378 2.55556,0.1052 0.44305,0.44306 -0.34446,0.75819 -1.75,0.7003 -1.55327,-0.064 -1.8692,-0.37992 -0.80556,-0.80555 z m -9.33334,-1.33333 c 0.9625,-0.38516 2.11251,-0.3378 2.55556,0.1052 0.44306,0.44305 -0.34445,0.75819 -1.75,0.70029 -1.55326,-0.064 -1.8692,-0.37992 -0.80556,-0.80554 z m -47.36798,-2.74263 c 4.24344,-0.2654 10.84344,-0.26293 14.66666,0.005 3.82323,0.26841 0.35132,0.48556 -7.71534,0.48254 -8.06667,-0.003 -11.19476,-0.22261 -6.95132,-0.48801 z M 165.4386,431.22223 c 0.064,-1.55327 0.37992,-1.8692 0.80555,-0.80556 0.38516,0.96249 0.3378,2.1125 -0.1052,2.55556 -0.44307,0.44305 -0.75819,-0.34446 -0.7003,-1.75 z m 949.3333,0 c 0.064,-1.55327 0.38,-1.8692 0.8056,-0.80556 0.3851,0.96249 0.3378,2.1125 -0.1052,2.55556 -0.4431,0.44305 -0.7582,-0.34446 -0.7003,-1.75 z m -1.3333,-8 c 0.064,-1.55327 0.3799,-1.8692 0.8055,-0.80556 0.3852,0.96249 0.3378,2.1125 -0.1052,2.55556 -0.443,0.44305 -0.7581,-0.34446 -0.7002,-1.75 z m -946.66667,-1.33334 c 0.064,-1.55326 0.37992,-1.8692 0.80555,-0.80556 0.38516,0.9625 0.3378,2.11251 -0.1052,2.55556 -0.44307,0.44306 -0.75819,-0.34445 -0.70029,-1.75 z m 30.5614,-63.72564 c 0,-0.27686 1.05,-1.32686 2.33334,-2.33333 2.11474,-1.65849 2.1619,-1.61133 0.50341,0.50341 -1.74183,2.221 -2.83675,2.92731 -2.83675,1.82992 z M 1079.8299,355 c -1.6585,-2.11475 -1.6113,-2.16191 0.5034,-0.50341 1.2834,1.00646 2.3334,2.05646 2.3334,2.33333 0,1.09739 -1.095,0.39108 -2.8368,-1.82992 z m -11.2471,-11.33333 -3.9161,-4.33334 4.3333,3.91612 c 2.3833,2.15387 4.3333,4.10387 4.3333,4.33334 0,1.03008 -1.1001,0.1232 -4.7505,-3.91612 z M 623.66667,116.45029 c 0.91666,-0.36988 2.41666,-0.36988 3.33333,0 0.91667,0.36989 0.16667,0.67252 -1.66667,0.67252 -1.83333,0 -2.58333,-0.30263 -1.66666,-0.67252 z m 32.08333,-0.0278 c 0.96249,-0.38516 2.11251,-0.33779 2.55556,0.10527 0.44305,0.44305 -0.34445,0.75818 -1.75,0.70029 -1.55327,-0.064 -1.8692,-0.37992 -0.80556,-0.80556 z"
         id="path831" />
      <path
         style="fill:#ff0044;fill-opacity:0.666667;stroke-width:1.33333"
         d="m 624.66667,1164.0229 c -12.38138,-1.1903 -23.4697,-3.9339 -37.07928,-9.1745 -8.82687,-3.3989 -29.84859,-15.2117 -152.25406,-85.557 C 389.54307,1042.9762 309.88885,997.27985 264,971.00024 c -36.70348,-21.01933 -49.44383,-29.81856 -60.32928,-41.66691 -16.51347,-17.97421 -29.97295,-43.19829 -35.21737,-66 C 166.12612,853.215 166,841.76856 166,640.66667 166,439.56477 166.12613,428.11833 168.45335,418 c 5.04224,-21.92265 16.76688,-44.50507 32.74598,-63.07089 12.95392,-15.0509 20.51442,-20.33554 68.134,-47.62434 46.77187,-26.80301 136.22048,-78.22282 157.33334,-90.44356 11.36666,-6.57936 24.56666,-14.16977 29.33333,-16.86757 4.76667,-2.6978 20.96667,-11.98171 36,-20.63091 94.20741,-54.20084 91.21461,-52.65571 114.17821,-58.94817 11.73692,-3.21614 15.45498,-3.60577 34.48846,-3.61425 17.96046,-0.008 23.09457,0.46513 32.47316,2.99252 25.20804,6.79318 17.83837,2.90647 151.52684,79.91424 14.66666,8.44834 36.56666,21.05708 48.66666,28.01938 12.1,6.96232 31.6,18.18856 43.33334,24.94719 C 928.4,259.43227 960.5,277.86613 988,293.63776 c 66.8809,38.35713 65.5471,37.54993 75.0255,45.40372 26.4434,21.911 43.0943,48.90795 49.6765,80.54312 l 3.2769,15.74873 V 640.66667 846 l -3.2769,15.74873 c -5.0353,24.20066 -18.3134,49.87312 -34.3768,66.46574 -13.1929,13.62757 -23.3452,21.17888 -44.9919,33.46497 -2.5666,1.45677 -14.5666,8.37536 -26.6666,15.37464 -12.10003,6.99928 -25.90003,14.92171 -30.6667,17.60537 -4.76667,2.68368 -29.36667,16.78265 -54.66667,31.33095 -25.3,14.5483 -49.9,28.652 -54.66666,31.3414 -7.37288,4.1599 -47.79276,27.3973 -124.66667,71.671 -42.15781,24.2798 -52.45312,28.9859 -71.91409,32.8728 -12.44098,2.4849 -32.19464,3.4188 -45.41924,2.1473 z m 36,-329.38318 c 35.51882,-3.28884 62.3717,-10.76843 87.08277,-24.25601 10.10737,-5.51672 15.70307,-9.80574 25.72405,-19.71704 14.19722,-14.04186 20.74691,-24.3192 26.19982,-41.11114 6.7196,-20.69266 4.97477,-56.71372 -3.73096,-77.02337 -9.83574,-22.94581 -29.77332,-41.49372 -59.23256,-55.10393 C 725.38611,612.19668 693.89076,601.4046 684,599.36689 677.34,597.99479 637.73843,586.00004 630.63516,583.20345 615.09417,577.08488 608,569.15056 608,557.88767 c 0,-9.73267 3.73587,-14.75175 15.29788,-20.55246 9.16243,-4.59682 9.58335,-4.67174 28.8918,-5.14268 22.55725,-0.55017 33.901,1.23363 53.91375,8.47795 11.23677,4.06755 31.49604,13.97584 38.52658,18.84236 1.4465,1.00128 3.0939,1.82049 3.66088,1.82049 0.56699,0 5.44308,-6.75 10.83576,-15 8.99902,-13.76713 35.02763,-54.18508 37.30495,-57.92816 0.63883,-1.04997 -2.8702,-3.86325 -10.27125,-8.23472 -40.5218,-23.9344 -79.51086,-33.90966 -132.82702,-33.98348 -30.48412,-0.0423 -49.17481,2.57915 -71.33333,10.00443 -42.29847,14.17413 -70.94713,40.06807 -82.19287,74.28955 -3.75806,11.43601 -4.23306,14.61564 -4.31026,28.85238 -0.0621,11.46924 0.58796,18.45416 2.29594,24.66667 9.67326,35.1848 35.75946,60.44687 80.27386,77.73781 12.48346,4.84903 13.535,5.17823 47.93333,15.00668 55.62904,15.89458 67.33333,23.25414 67.33333,42.33855 0,13.27689 -7.58221,20.36488 -26.548,24.81752 -14.64854,3.43907 -39.99557,3.74529 -56.16233,0.67851 -27.72244,-5.25886 -58.97021,-19.1588 -74.37879,-33.08591 l -3.08913,-2.79212 -2.2442,2.85681 c -1.23432,1.57126 -6.56536,8.46352 -11.84677,15.31615 -5.2814,6.85264 -16.82362,21.75933 -25.64936,33.126 -8.82575,11.36667 -16.05459,21.04379 -16.06411,21.50471 -0.0287,1.38836 13.65569,12.6272 22.64461,18.5978 37.27555,24.75909 106.22003,39.57909 160.67142,34.53721 z"
         id="path829" />
    </g>
  </g>
</svg>
